<svg width="675" height="266" viewBox="0 0 675 266" fill="none" xmlns="http://www.w3.org/2000/svg">
<path fill-rule="evenodd" clip-rule="evenodd" d="M419.903 44.604C399.866 24.9587 373.292 15 340.895 15C308.499 15 281.639 25.122 261.06 45.0666C240.508 64.984 230.062 94.452 230.062 132.627C230.062 170.802 240.366 200.325 260.688 220.46C281.04 240.649 307.699 250.88 339.896 250.88C372.093 250.88 398.724 241.057 419.189 221.63C439.655 202.229 450.045 172.489 450.045 133.253C450.045 94.0166 439.912 64.2221 419.903 44.604ZM357.108 113.825C356.937 118.424 353.683 122.043 349.858 121.906C346.004 121.77 343.036 117.961 343.207 113.363C343.378 108.764 346.632 105.145 350.457 105.281C354.311 105.417 357.279 109.227 357.108 113.825ZM337.413 113.825C337.242 118.424 333.988 122.043 330.163 121.906C326.31 121.77 323.341 117.961 323.512 113.363C323.684 108.764 326.938 105.145 330.762 105.281C334.616 105.417 337.584 109.227 337.413 113.825ZM363.159 168.544C357.108 176.407 349.487 180.244 339.896 180.244C330.306 180.244 322.742 176.462 316.805 168.707C310.611 160.626 307.471 148.572 307.471 132.926C307.471 117.281 310.782 105.091 317.29 96.6832C318.175 95.5676 319.06 94.5336 320.002 93.5541C322 96.139 322.199 99.9483 319.202 105.009C316.205 110.043 313.579 118.505 314.521 123.784C315.806 131.076 325.054 142.014 327.28 148.082C329.506 154.15 334.93 154.558 340.096 154.558C345.262 154.558 350.714 154.15 352.912 148.082C355.138 142.014 364.386 131.103 365.671 123.784C366.613 118.505 363.987 110.043 360.99 105.009C357.936 99.8667 358.192 96.0302 360.276 93.4452C361.161 94.3704 362.046 95.3499 362.902 96.4111C369.381 104.601 372.692 116.737 372.692 132.464C372.692 148.191 369.496 160.354 363.188 168.571L363.159 168.544Z" fill="#224083"/>
<path d="M2.67135 47.3572C1.20895 40.2305 6.08025 33.2103 13.5517 31.6771L110.784 11.7252L139.911 153.67C78.7396 166.223 19.4443 129.097 7.47111 70.748L2.67135 47.3572Z" fill="#F37F20"/>
<path d="M110.784 11.7252L128.491 8.0918C149.297 3.82231 169.466 16.4501 173.538 36.2967L212.472 226.036C213.083 229.013 211.049 231.946 207.928 232.586L177.035 238.925C166.632 241.06 156.548 234.746 154.511 224.823L110.784 11.7252Z" fill="#F37F20"/>
<path d="M55.4037 23.0892L110.784 11.7252L129.071 100.845L111.365 104.479C90.5581 108.748 70.3896 96.1204 66.3171 76.2737L55.4037 23.0892Z" fill="#F5F5F5"/>
<path d="M504.955 16.7688C506.033 9.57379 513.021 4.65684 520.564 5.78647L618.728 20.4873L597.266 163.792C535.509 154.543 492.597 99.2916 501.419 40.3836L504.955 16.7688Z" fill="#F37F20"/>
<path d="M618.728 20.4873L636.604 23.1644C657.61 26.3102 672.206 45.1034 669.205 65.1401L640.518 256.697C640.068 259.702 637.148 261.756 633.998 261.285L602.809 256.614C592.306 255.041 585.008 245.644 586.509 235.626L618.728 20.4873Z" fill="#F37F20"/>
<path d="M562.817 12.1142L618.728 20.4873L605.253 110.461L587.377 107.784C566.371 104.638 551.775 85.8449 554.776 65.8082L562.817 12.1142Z" fill="#F5F5F5"/>
</svg>
