<svg width="587" height="236" viewBox="0 0 587 236" fill="none" xmlns="http://www.w3.org/2000/svg">
<path d="M107.49 8.87027C111.039 8.12739 114.451 15.5126 117.694 31.0056C118.711 35.8681 119.499 41.6969 120.03 48.4971C120.587 55.292 119.726 58.928 117.472 59.3998L62.7611 70.8521L66.7587 91.3707L76.0067 89.4348C96.0311 85.2433 112.139 87.919 124.377 97.4254C136.621 106.958 144.748 121.239 148.732 140.276C152.717 159.312 149.236 176.267 138.288 191.139C127.341 206.012 111.292 215.635 90.1799 220.054C69.0675 224.473 52.9796 224.736 42.0093 220.769C39.9978 218.652 38.4562 215.033 37.3788 209.886C36.3014 204.739 35.5312 197.314 35.0576 187.559C34.5839 177.804 35.6451 172.668 38.2614 172.12C38.4428 172.082 39.0939 172.351 40.178 172.88C54.5729 175.509 65.296 176.099 72.3162 174.63C79.3364 173.16 84.7126 170.037 88.4965 165.25C92.2804 160.462 93.5367 155.096 92.2807 149.096C89.1567 134.172 79.5616 128.378 63.4747 131.745L39.4168 137.078C37.6329 137.856 35.574 137.45 33.2974 135.875C31.0208 134.3 29.5522 131.934 28.8863 128.753L10.538 41.0977C8.93544 33.4417 10.9319 29.0281 16.5532 27.8514L107.453 8.82396L107.49 8.87027Z" fill="#F37F20"/>
<path fill-rule="evenodd" clip-rule="evenodd" d="M313.65 30.1569C294.106 16.9062 270.986 12.9133 244.912 18.2892C218.839 23.6652 198.983 36.6627 185.889 56.906C172.814 77.1216 169.533 103.719 176.174 135.929C182.815 168.139 196.244 191.339 216.104 204.955C235.995 218.613 259.231 222.822 285.144 217.479C311.057 212.136 330.781 199.429 343.872 179.641C356.968 159.876 360.156 133.058 353.331 99.9526C346.505 66.8471 333.166 43.3894 313.65 30.1569ZM275.153 98.9827C275.815 102.891 273.826 106.484 270.724 107.004C267.599 107.529 264.547 104.807 263.885 100.899C263.223 96.9907 265.212 93.3973 268.314 92.8774C271.439 92.3528 274.491 95.0743 275.153 98.9827ZM259.302 102.251C259.964 106.159 257.975 109.753 254.873 110.273C251.748 110.797 248.696 108.076 248.034 104.167C247.372 100.259 249.361 96.6656 252.463 96.1456C255.588 95.621 258.64 98.3425 259.302 102.251ZM289.542 144.147C286.04 151.786 280.574 156.288 272.855 157.88C265.137 159.471 258.391 157.535 252.264 151.977C245.873 146.186 241.249 136.537 238.527 123.336C235.805 110.135 236.35 99.3005 240.125 91.1265C240.643 90.0384 241.175 89.0192 241.763 88.0364C243.82 89.8858 244.644 93.0668 243.112 97.8344C241.576 102.579 240.934 110.155 242.611 114.452C244.913 120.392 254.259 128.086 257.107 132.837C259.954 137.587 264.39 137.031 268.548 136.174C272.706 135.317 277.022 134.068 277.736 128.583C278.472 123.094 284.017 112.353 283.777 105.964C283.617 101.354 280.031 94.65 276.744 90.9001C273.391 87.0678 272.93 83.7881 274.158 81.2613C275.031 81.8951 275.913 82.5747 276.787 83.328C283.426 89.1632 288.202 98.853 290.938 112.123C293.675 125.393 293.217 136.185 289.57 144.165L289.542 144.147Z" fill="#224083"/>
<path fill-rule="evenodd" clip-rule="evenodd" d="M556.92 56.8654C544.263 36.9316 524.641 24.0681 498.582 18.6242C472.522 13.1804 449.134 17.2028 429.066 30.5638C409.027 43.9067 395.432 67.0014 388.707 99.1942C381.982 131.387 385.069 158.015 397.87 178.409C410.684 198.855 430.326 211.962 456.224 217.372C482.123 222.783 505.275 218.974 525.16 206.03C545.04 193.109 558.636 169.775 565.548 136.687C572.461 103.6 569.559 76.7715 556.92 56.8654ZM494.214 104.687C493.266 108.536 490.011 111.041 486.958 110.284C483.883 109.522 482.166 105.81 483.114 101.961C484.061 98.1124 487.316 95.6074 490.369 96.3648C493.445 97.127 495.161 100.838 494.214 104.687ZM478.371 101.378C477.423 105.227 474.168 107.732 471.116 106.974C468.04 106.212 466.323 102.501 467.271 98.6519C468.219 94.8029 471.474 92.2979 474.527 93.0553C477.602 93.8176 479.319 97.5288 478.371 101.378ZM489.442 151.848C483.189 157.462 476.383 159.417 468.668 157.806C460.954 156.194 455.536 151.733 452.126 144.196C448.567 136.341 448.165 125.648 450.921 112.454C453.678 99.2605 458.488 89.5372 465.204 83.5406C466.113 82.7485 467.007 82.0253 467.937 81.3575C469.089 83.8731 468.578 87.1191 465.276 90.8833C461.978 94.6247 458.375 101.32 458.203 105.929C457.952 112.295 463.464 123.073 464.186 128.564C464.908 134.055 469.198 135.31 473.354 136.178C477.51 137.046 481.967 137.618 484.804 132.871C487.663 128.128 497.025 120.481 499.347 114.524C501.035 110.231 500.413 102.654 498.889 97.9052C497.338 93.0553 498.221 89.8631 500.352 88.0334C500.901 88.9622 501.44 89.9369 501.942 90.9757C505.711 98.9711 506.237 109.761 503.466 123.024C500.696 136.287 495.981 146.006 489.46 151.876L489.442 151.848Z" fill="#F37F20"/>
</svg>
