<svg width="102" height="102" viewBox="0 0 102 102" fill="none" xmlns="http://www.w3.org/2000/svg">
<path d="M13.1989 51.5606C14.3706 47.1878 18.8653 44.5927 23.2381 45.7644L39.6014 50.1489C43.9742 51.3206 46.5692 55.8154 45.3975 60.1882L41.013 76.5515C39.8413 80.9243 35.3466 83.5193 30.9738 82.3476L14.6105 77.9631C10.2377 76.7914 7.64264 72.2967 8.81434 67.9238L13.1989 51.5606Z" fill="#162D61"/>
<path d="M6.50603 55.4247C7.67772 51.0519 12.1724 48.4568 16.5453 49.6285L32.9085 54.0131C37.2814 55.1848 39.8764 59.6795 38.7047 64.0523L34.3202 80.4156C33.1485 84.7884 28.6538 87.3834 24.2809 86.2117L7.91767 81.8272C3.54484 80.6555 0.949805 76.1608 2.1215 71.788L6.50603 55.4247Z" fill="#F1F1F1"/>
<path d="M18.7149 30.9742C17.5432 35.347 20.1382 39.8417 24.5111 41.0134L40.8743 45.398C45.2472 46.5697 49.7419 43.9746 50.9136 39.6018L55.2981 23.2385C56.4698 18.8657 53.8748 14.371 49.5019 13.1993L33.1387 8.81477C28.7658 7.64307 24.2711 10.2381 23.0994 14.6109L18.7149 30.9742Z" fill="#F27F20"/>
<path d="M14.8508 24.2814C13.6791 28.6542 16.2741 33.1489 20.647 34.3206L37.0102 38.7051C41.383 39.8768 45.8778 37.2818 47.0495 32.909L51.434 16.5457C52.6057 12.1729 50.0107 7.67815 45.6378 6.50645L29.2746 2.12193C24.9017 0.950232 20.407 3.54526 19.2353 7.9181L14.8508 24.2814Z" fill="#F1F1F1"/>
<path d="M60.5765 24.6532C61.7482 20.2804 66.2429 17.6854 70.6158 18.857L86.979 23.2416C91.3519 24.4133 93.9469 28.908 92.7752 33.2808L88.5321 49.1162C87.3604 53.4891 82.8657 56.0841 78.4929 54.9124L62.1296 50.5279C57.7568 49.3562 55.1617 44.8615 56.3334 40.4886L60.5765 24.6532Z" fill="#162D61"/>
<path d="M67.2694 20.7891C68.4411 16.4163 72.9358 13.8212 77.3086 14.9929L93.6719 19.3775C98.0447 20.5492 100.64 25.0439 99.468 29.4167L95.2249 45.2521C94.0533 49.625 89.5585 52.22 85.1857 51.0483L68.8224 46.6638C64.4496 45.4921 61.8546 40.9974 63.0263 36.6245L67.2694 20.7891Z" fill="#F1F1F1"/>
<path d="M46.2914 77.9659C45.1197 82.3388 47.7147 86.8335 52.0876 88.0052L68.4508 92.3897C72.8237 93.5614 77.3184 90.9664 78.4901 86.5935L82.7332 70.7581C83.9049 66.3853 81.3098 61.8906 76.937 60.7189L60.5737 56.3343C56.2009 55.1626 51.7062 57.7577 50.5345 62.1305L46.2914 77.9659Z" fill="#F27F20"/>
<path d="M50.1555 84.6588C48.9838 89.0316 51.5788 93.5263 55.9517 94.698L72.3149 99.0825C76.6878 100.254 81.1825 97.6592 82.3542 93.2864L86.5973 77.451C87.769 73.0781 85.1739 68.5834 80.8011 67.4117L64.4378 63.0272C60.065 61.8555 55.5703 64.4505 54.3986 68.8233L50.1555 84.6588Z" fill="#F1F1F1"/>
</svg>
