<svg width="44" height="44" viewBox="0 0 44 44" fill="none" xmlns="http://www.w3.org/2000/svg">
<rect width="44" height="44" rx="22" fill="black" fill-opacity="0.01"/>
<g clip-path="url(#clip0_840_806)">
<path fill-rule="evenodd" clip-rule="evenodd" d="M22.0099 10C15.3687 10 10 15.4083 10 22.0992C10 27.4475 13.4399 31.9748 18.2121 33.5771C18.8087 33.6976 19.0272 33.3168 19.0272 32.9965C19.0272 32.716 19.0076 31.7545 19.0076 30.7527C15.6667 31.474 14.971 29.3104 14.971 29.3104C14.4341 27.9082 13.6386 27.5478 13.6386 27.5478C12.5451 26.8066 13.7182 26.8066 13.7182 26.8066C14.9312 26.8868 15.5676 28.0486 15.5676 28.0486C16.6412 29.8913 18.3711 29.3707 19.0671 29.0501C19.1664 28.2688 19.4847 27.728 19.8228 27.4276C17.1582 27.1471 14.3547 26.1055 14.3547 21.458C14.3547 20.1359 14.8316 19.0543 15.5873 18.213C15.4681 17.9126 15.0504 16.6704 15.7068 15.0079C15.7068 15.0079 16.7208 14.6873 19.0073 16.2498C19.9863 15.985 20.9958 15.8502 22.0099 15.8491C23.024 15.8491 24.0577 15.9895 25.0123 16.2498C27.299 14.6873 28.3131 15.0079 28.3131 15.0079C28.9695 16.6704 28.5515 17.9126 28.4323 18.213C29.2079 19.0543 29.6652 20.1359 29.6652 21.458C29.6652 26.1055 26.8617 27.1269 24.1772 27.4276C24.6148 27.8081 24.9924 28.5292 24.9924 29.6711C24.9924 31.2936 24.9727 32.5957 24.9727 32.9962C24.9727 33.3168 25.1915 33.6976 25.7879 33.5774C30.56 31.9745 33.9999 27.4475 33.9999 22.0992C34.0196 15.4083 28.6312 10 22.0099 10Z" fill="#F1F2F3"/>
</g>
<defs>
<clipPath id="clip0_840_806">
<rect width="24" height="24" fill="white" transform="translate(10 10)"/>
</clipPath>
</defs>
</svg>
