<svg width="333" height="5" viewBox="0 0 333 5" fill="none" xmlns="http://www.w3.org/2000/svg">
<path d="M3.16377 4.97458C5.02507 5.03971 7.46492 4.97007 9.31918 4.87448C9.90031 4.84483 9.60604 4.71231 10.0072 4.68588C10.7918 4.63435 11.5227 4.69935 12.2981 4.63797C12.555 4.61698 12.2352 4.40706 12.5046 4.38986C13.981 4.29709 15.3778 4.35056 16.8734 4.30594C24.2405 4.08579 31.4822 4.00699 38.9394 3.91135C41.3982 3.87999 44.3872 3.68949 46.927 3.7728C47.2234 3.78271 47.0467 3.96696 47.1031 3.98215C47.9878 4.21463 47.6936 3.84266 48.2713 3.79324C50.564 3.59812 53.1135 3.58114 55.32 3.65225C56.2587 3.68304 55.3175 4.04901 56.2627 3.8436C56.3283 3.82972 56.0902 3.63406 56.3476 3.61319C56.9314 3.56625 58.039 3.60123 58.4915 3.58572C59.3635 3.55486 59.5077 3.55683 60.3325 3.5546C61.46 3.54985 62.8011 3.45259 64.0108 3.49692C64.269 3.50696 63.9272 3.70754 64.339 3.74167C64.7511 3.77575 65.8416 3.75874 66.2092 3.71146C66.5769 3.66415 66.4203 3.5065 66.4854 3.47037C67.0207 3.16538 68.2821 3.58779 68.4443 3.59824C71.4032 3.77623 73.9407 3.5356 76.7182 3.53629C78.8268 3.53732 81.0814 3.61676 83.0877 3.60587C85.478 3.59211 87.5039 3.48342 89.826 3.50211C90.0711 3.50385 89.7839 3.73968 90.0832 3.74228C93.2632 3.76972 96.4212 3.74401 99.5875 3.58481C99.905 3.56864 99.4958 3.36158 99.813 3.33304C101.755 3.16288 104.829 2.75411 105.982 3.65561C107.298 3.62041 108.895 3.58404 110.072 3.40231C110.831 3.28536 110.094 3.05979 111.027 3.15604C111.237 3.17748 110.963 3.37502 111.279 3.39224C112.606 3.46456 114.057 3.40035 115.37 3.50241C115.637 3.52364 115.564 3.70064 115.64 3.73251C116.276 3.99065 117.335 3.56394 117.566 3.53293C119.324 3.30171 120.608 3.3927 122.245 3.38706C122.625 3.38565 122.176 3.6234 122.542 3.63059C124.438 3.66466 126.403 3.64423 128.26 3.53873C128.673 3.51469 128.293 3.31217 128.491 3.29032C129.361 3.19644 129.554 3.57896 130.389 3.49631C130.565 3.47938 130.465 3.306 130.498 3.28696C131 2.98806 131.436 3.41158 131.566 3.42093C133.2 3.54869 134.245 3.10655 135.824 3.16916C136.013 3.1771 135.587 3.39647 136.118 3.40537C139.656 3.46593 143.398 3.40566 146.9 3.2302C147.444 3.20321 147.055 3.03841 147.09 3.0181C147.648 2.70068 148.01 3.12598 148.187 3.142C149.588 3.2573 150.896 2.90063 151.848 3.4072C157.779 3.2314 163.684 3.51587 169.566 3.06204C169.641 3.05679 169.507 2.84733 169.656 2.83774C171.453 2.72013 171.108 3.04567 172.297 3.44382C172.596 3.5438 173.507 3.0631 173.588 3.02787C173.882 2.89802 173.577 2.5864 173.675 2.56125C174.489 2.36379 174.357 3.39435 175.454 3.39469C175.489 3.39297 175.344 3.20328 175.437 3.18442C175.723 3.12521 176.007 3.20058 176.287 3.13529C176.928 2.9842 177.156 2.48344 178.135 2.77488C178.259 2.8127 178.07 3.39728 179.05 3.36966C179.441 3.35816 181.171 3.36818 181.655 3.33029C182.139 3.29246 181.807 3.10408 181.842 3.09592C183.146 2.84682 182.651 2.74358 183.305 2.37479C183.959 2.00739 183.777 2.88367 184.044 2.98148C184.311 3.07901 185.267 2.87348 185.502 2.80204C185.737 2.73056 185.444 2.61086 185.653 2.57041C187.038 2.30614 186.261 3.00536 186.717 3.14444C187.793 3.47376 188.631 2.8239 189.616 2.76023C189.883 2.74303 189.665 2.89104 189.903 2.90488C190.843 2.95774 191.408 2.75497 192.477 2.94089C192.652 2.97119 193.517 3.3619 194.076 3.07517C194.156 3.03382 193.93 2.87188 194.331 2.83561C194.929 2.78117 196.008 2.74577 196.651 2.7999C197.126 2.83995 196.582 3.10679 197.179 3.0239C197.445 2.98688 196.953 2.83078 197.452 2.77427C197.948 2.71777 199.218 2.72462 199.701 2.73001C200.183 2.73552 199.919 2.93794 199.958 2.95157C200.194 3.02968 201.119 3.12729 201.201 3.12705C205.326 3.15176 209.13 2.81057 213.146 2.9235C213.461 2.93206 213.251 3.14551 213.299 3.14902C214.378 3.23845 213.527 2.67094 214.281 2.48099C214.172 2.91414 214.617 2.83571 215.377 2.88321C215.743 2.90646 215.544 3.07417 215.577 3.09134C216.12 3.34608 216.499 3.01705 216.596 2.94974C216.956 2.70214 217.347 2.9947 217.592 2.8292C217.836 2.66493 217.274 2.42142 218.002 2.42453C218.207 2.57959 217.666 2.98478 218.219 3.05045C220.307 3.29885 224.205 2.98093 225.884 2.94791C227.559 2.91491 228.1 2.94352 229.077 2.88748C230.84 2.78617 230.194 3.08679 231.289 3.2244C232.387 3.36199 231.853 2.6223 232.011 2.46329C232.166 2.30435 232.335 2.46796 232.528 2.38059C232.72 2.29324 232.304 2.18512 232.756 2.15232C233.208 2.11955 234.444 2.40231 234.605 2.56858C234.944 2.92082 234.386 3.29052 235.583 3.16062C235.652 3.15291 235.428 2.95841 235.692 2.93875C237.785 2.78902 239.959 2.77974 242.049 2.64731C242.336 2.6288 242.079 2.41243 242.246 2.39921C243.988 2.26081 243.366 2.62564 244.321 3.03092C244.106 2.49158 244.634 2.16161 245.956 2.15842C246.751 2.15632 246.614 2.39188 247.128 2.5579C247.283 2.60794 247.845 2.4462 247.947 2.55698C248.283 2.9191 247.753 3.32447 249.116 3.16306C249.176 3.15539 248.986 2.95717 249.192 2.94516C250.528 2.86659 250.688 3.24536 252.132 3.29123C253.264 3.32722 255.277 3.09625 256.566 3.05869C256.538 2.45231 257.756 2.59117 258.249 3.00925C259.086 2.99213 259.989 3.01577 260.798 2.95798C261.076 2.93828 260.893 2.76272 260.928 2.74375C261.466 2.44617 261.83 2.85292 262.01 2.86887C263.967 3.02388 265.561 2.7156 267.428 3.01688C267.494 3.02773 267.602 3.44894 268.101 3.14139C268.133 3.12019 267.516 2.92855 268.395 2.91373C269.273 2.89888 270.93 2.67308 272.149 2.86826C272.444 2.91525 273.191 3.25718 273.79 2.99002C273.87 2.95375 273.782 2.83294 273.898 2.76572C274.27 2.55152 274.474 2.97726 274.911 2.61557C275.349 2.25391 276.26 1.98304 277.49 2.23258C277.529 2.23983 277.82 2.57727 278.207 2.57193C278.825 2.56313 279.701 2.49283 280.346 2.49503C280.654 2.4962 280.457 2.70574 280.511 2.70957C282.586 2.82698 284.063 2.64019 286.287 2.55912C286.695 2.54384 287.866 2.82957 288.655 2.60367C289.522 2.35639 288.631 1.32772 290.623 1.57279C291.426 1.67082 292.443 2.97587 293.887 2.29972C296.687 2.46726 299.276 2.12121 302.084 2.36045C302.21 2.37105 302.609 2.73528 302.906 2.73032C303.347 2.72226 303.589 2.55202 303.903 2.54081C305.222 2.48953 306.428 2.63518 307.699 2.61252C308.182 2.60429 308.013 2.42827 308.589 2.41843C309.164 2.40876 309.548 2.64054 310.327 2.5286C310.916 2.44327 311.505 1.96951 312.286 1.91428C312.316 2.3816 312.852 2.37197 313.806 2.49534C313.99 2.51927 313.793 2.68192 313.88 2.70163C314.233 2.78546 314.56 2.65066 314.895 2.74192C314.976 2.76383 314.98 2.92343 315.047 2.95035C315.614 3.18538 316.548 2.82639 316.708 2.76389C317.323 2.52651 317.61 2.73408 318.082 2.6406C318.552 2.54713 317.848 2.43029 318.398 2.37357C319.538 2.25625 321.003 2.28203 322.16 2.27469C322.622 2.27275 322.307 2.48578 322.373 2.49045C323.328 2.54448 324.294 2.31788 324.824 2.74222C325.486 1.64503 325.4 2.84864 326.765 2.629C326.872 2.61124 327.009 2.09238 326.596 2.01621C326.183 1.94011 325.557 2.1023 324.985 1.98356C324.849 1.95569 324.072 1.46949 323.966 1.44004C323.135 1.20987 323.018 1.98522 322.974 2.02781C322.475 2.48739 321.526 1.9636 321.276 1.9274C320.132 1.76157 319.16 1.87061 318.203 1.75223C317.577 1.67573 317.516 1.16784 317.025 1.18339C315.391 1.23477 314.821 1.94328 313.282 1.32896C312.952 1.19793 313.28 0.642829 312.097 1.07932C312.023 1.10684 311.145 1.50616 310.638 1.25358C310.574 1.22173 310.576 1.05996 310.492 1.04637C309.929 0.958458 309.553 1.08734 308.94 1.02561C308.326 0.963887 307.589 0.871866 306.888 0.926737C306.466 0.959548 305.925 1.26096 305.723 1.33476C305.152 1.54734 304.54 1.19879 304.187 1.45622C303.831 1.71493 304.527 2.10784 303.593 2.275C303.558 1.85469 303.479 1.42328 303.423 1.00059C301.375 1.01539 299.359 1.1513 297.304 1.13273C297.049 1.13001 297.31 0.904047 297.037 0.895304C295.884 0.859406 294.878 1.02049 293.683 0.956339C292.758 0.905821 291.744 0.666577 290.776 0.606303C290.185 1.08726 288.75 0.923984 287.707 0.967935C287.342 0.983122 287.367 1.11158 287.107 1.15348C286.127 1.30847 286.586 0.883454 286.317 0.816569C285.165 0.53111 285.066 1.49311 283.707 1.46934C283.635 1.4684 282.755 0.955618 282.634 0.923685C281.864 0.715457 282.507 1.10217 282.025 1.14005C281.145 1.20929 280.533 1.33175 279.501 1.18156C279.2 1.13707 278.477 0.817456 277.893 1.06468C277.816 1.09705 277.858 1.26654 277.796 1.27647C276.676 1.44193 276.646 0.909353 276.006 0.728983C275.366 0.548653 274.376 0.916297 274.175 1.02226C273.649 1.29637 274.579 1.1394 274.607 1.1663C274.942 1.48642 274.221 1.4313 273.67 1.45835C273.59 1.98055 272.819 1.9492 273.098 1.48429C273.13 1.43351 273.559 1.48221 273.67 1.45835C273.186 0.946007 272.339 0.880391 271.403 1.35917C270.965 1.58357 271.379 1.8452 270.048 1.74949C269.444 1.70628 269.678 1.34672 269.145 1.2487C267.927 1.02504 266.346 1.36044 265.09 1.30759C264.635 1.28841 265.079 1.09159 264.767 1.07169C263.941 1.01828 263.212 1.16596 262.383 1.09031C262.307 1.08321 262.491 0.877177 262.233 0.874552C260.277 0.850625 258.574 0.982588 256.531 0.986246C255.544 0.98792 253.78 0.874289 252.758 0.897135C250.986 0.935514 248.807 1.23511 247.293 1.16233C246.306 1.11574 246.523 0.909672 246.1 0.769267C245.283 0.497104 243.839 0.98461 243.644 1.0601C243.638 1.0626 244.487 1.11118 244.034 1.21696C243.771 1.43737 243.654 1.06105 243.644 1.0601C243.516 1.10886 241.819 1.15564 241.482 1.11625C241.299 1.09472 241.402 0.899481 241.306 0.891947C239.037 0.717224 236.764 0.667602 234.463 0.758891C234.422 0.762835 234.483 0.981224 234.388 0.987772C233.056 1.08487 232.203 0.817715 231.104 0.659098C230.005 0.500553 229.134 0.553655 228.484 0.928568C227.655 0.881363 226.465 1.04711 225.781 1.14768C225.097 1.24825 225.001 0.823141 224.941 0.814738C223.063 0.545748 221.977 0.789075 220.028 0.826945C219.102 0.845677 217.264 0.784015 216.261 0.737528C215.469 0.700079 214.991 0.799705 214.261 0.736003C214.162 0.727495 214.262 0.538213 214.232 0.530925C213.416 0.304461 213.808 0.76719 213.64 0.849833C213.03 1.15036 212.653 1.31042 211.609 1.16905C211.368 1.13667 210.667 0.470402 210.228 0.431438C209.657 0.382 209.872 0.620817 209.275 0.562968C209.224 0.558237 209.234 0.410904 208.866 0.4174C207.154 0.445617 205.287 0.531347 203.508 0.516582C203.265 0.51513 203.577 0.281438 203.226 0.275494C201.578 0.247793 199.773 0.256441 198.168 0.365825C197.773 0.393485 198.02 0.55711 197.935 0.605693C197.408 0.899655 196.661 0.472535 196.538 0.464397C193.6 0.259144 191.351 0.645682 188.356 0.46165C188.193 0.450846 186.938 -0.00703468 186.378 0.385662C186.339 0.411788 185.785 0.813557 185.296 0.53886C185.265 0.521675 185.61 0.314837 185.008 0.335918C184.406 0.356954 183.436 0.218829 182.608 0.446086C182.346 0.517676 181.726 0.918454 180.945 0.598979C180.894 0.576676 179.686 -0.145701 179.255 0.352703C179.186 0.434745 179.259 0.96217 178.325 0.691752C178.147 0.639327 178.471 0.521683 178.001 0.448223C177.281 0.335004 176.328 0.476266 175.443 0.241314C175.289 0.199719 174.632 -0.158265 174.105 0.113446C174.022 0.156 174.179 0.332082 173.901 0.351787C172.578 0.446311 171.192 0.32853 169.849 0.450359C169.373 0.493167 169.616 0.777823 169.12 0.854105C168.624 0.930361 167.625 1.00372 167.106 0.873636C166.586 0.743499 167.154 0.289825 166.376 0.253521C162.994 0.0958521 159.645 0.36199 156.268 0.400921C155.768 0.406735 156.183 0.244396 155.445 0.241314C152.724 0.229237 148.027 0.077027 145.666 0.421978C143.774 0.698264 146.154 0.908605 144.709 1.02104C144.011 1.07467 143.257 0.547225 143.088 0.53062C141.443 0.361945 140.3 0.595591 138.82 0.523906C138.514 0.509031 138.814 0.295253 138.554 0.284954C137.665 0.24788 136.731 0.343301 135.881 0.325848C135.5 0.317526 135.57 0.15425 135.22 0.166851C134.381 0.195124 133.639 0.263757 132.821 0.41679C132.747 0.430734 133.249 0.633844 132.629 0.641398C131.624 0.653047 130.377 0.804013 129.222 0.648112C128.879 0.601214 128.865 0.22805 128.128 0.485759C127.973 0.539584 128.171 0.987672 127.312 0.600505C127.168 0.536167 125.725 0.0139485 125.017 0.350567C124.831 0.439161 124.354 0.805834 123.942 0.748209C123.886 0.739015 124.11 0.538574 123.768 0.519023C122.564 0.453607 121.302 0.474992 120.065 0.412212C119.734 0.395051 120.226 0.187636 119.734 0.168683C118.38 0.116257 116.689 0.169068 115.365 0.23399C114.877 0.258319 115.214 0.430135 115.179 0.448833C114.607 0.752958 114.27 0.342459 114.08 0.318523C112.901 0.175198 112.003 0.368025 110.916 0.316997C110.616 0.303436 110.829 0.107705 110.769 0.0902526C110.15 -0.0802737 110.611 0.271232 110.219 0.309978C109.121 0.41969 107.897 0.403959 106.787 0.378948C106.379 0.369473 106.837 0.14252 106.471 0.136639C104.305 0.0975312 102.053 0.119248 99.9384 0.244366C99.5404 0.268336 99.7908 0.443097 99.7078 0.483013C99.136 0.762275 98.2979 0.381359 98.105 0.345074C97.2282 0.179397 96.8875 0.333942 96.1132 0.305096C92.3303 0.161475 87.6595 0.263832 84.0887 0.327068C79.4356 0.408453 75.8249 0.574707 71.3877 0.531535C71.1056 0.529011 71.39 0.296524 71.1469 0.291363C68.0082 0.235318 64.9182 0.326164 61.7732 0.259014C61.5151 0.253916 61.8871 0.0335175 61.4729 0.0179262C60.6232 -0.0155992 59.5469 -0.00361994 58.6879 0.0667541C58.2689 0.100662 58.8309 0.289784 58.4091 0.320049C57.427 0.390954 56.3744 0.406652 55.3656 0.371319C54.9363 0.355802 55.584 0.130391 55.026 0.127789C51.2252 0.105426 47.4925 0.0666048 43.6516 0.358501C43.3883 0.378549 43.1572 0.836675 42.5974 0.74882C42.5552 0.621678 42.5575 0.472119 42.5391 0.336224C37.0061 0.263019 31.5296 0.421836 25.9811 0.446392C25.7472 0.447375 26.1515 0.204637 25.6985 0.205304C23.0772 0.208892 20.5317 0.141647 17.8503 0.382915C17.5843 0.406511 17.7208 0.833546 16.9368 0.768961C16.7985 0.757176 15.6177 0.700225 15.3124 0.607524C15.2709 0.593541 15.4864 0.394218 15.1059 0.388408C12.8947 0.35814 10.5775 0.403645 8.37015 0.525432C8.0139 0.545469 8.39328 0.757731 8.13954 0.773844C6.33966 0.886522 4.38189 0.725164 2.66202 0.917887C1.51079 1.04765 1.93701 1.41457 1.32526 1.77573C1.23874 1.82669 0.525865 1.83476 0.489 2.0449C0.394356 2.5733 0.73965 3.15189 0.597967 3.71512C0.568034 3.83643 -0.386688 3.70577 0.178568 3.99893C0.218058 4.01855 0.910235 4.11585 1.08072 4.2153C1.19942 4.28406 0.98552 4.49777 1.2277 4.58578C1.46986 4.67372 1.73596 4.49458 2.13745 4.59799C2.53877 4.70268 2.36231 4.9458 3.16377 4.97458ZM222.699 1.59721C222.066 1.80136 221.972 1.05362 222.658 1.23252C222.691 1.24206 222.732 1.58719 222.699 1.59721ZM299.371 1.71531C298.542 2.04511 297.975 1.56017 298.56 1.30546C299.144 1.05102 299.623 1.61533 299.371 1.71531ZM307.961 1.95609C306.993 2.21613 306.841 1.15581 307.878 1.37016C307.938 1.38227 308.018 1.94099 307.961 1.95609ZM4.16222 1.87858C4.15348 1.88851 3.64103 1.89818 3.62879 1.88834C3.35592 1.65086 4.3806 1.63168 4.16222 1.87858ZM316.486 2.21824C316.184 2.36167 315.314 2.19609 315.689 2.01774C315.992 1.87425 316.863 2.03982 316.486 2.21824ZM189.643 2.39524C189.633 2.40638 189.266 2.41641 189.273 2.35343C189.298 2.15057 189.809 2.20782 189.643 2.39524ZM330.975 2.23044C328.835 2.27036 327.537 3.14623 329.868 3.0474C330.29 3.02951 328.958 2.76809 329.495 2.68912C330.478 2.54526 331.131 3.0952 332.135 2.80051C332.316 2.74657 331.097 2.22622 330.971 2.22922C330.973 2.22963 330.974 2.23004 330.975 2.23044ZM222.334 2.49534C222.322 2.50522 221.813 2.5146 221.801 2.5048C221.526 2.26741 222.55 2.24838 222.334 2.49534ZM168.205 2.85758C168.177 2.87865 166.997 2.89835 166.959 2.87894C166.343 2.49075 168.729 2.44976 168.205 2.85758ZM256.586 3.04251C257.141 3.28132 257.805 3.30944 258.247 3.00955C257.695 3.02547 257.14 3.02782 256.586 3.04251Z" fill="#F37F20"/>
</svg>
