<svg width="333" height="5" viewBox="0 0 333 5" fill="none" xmlns="http://www.w3.org/2000/svg">
<path d="M329.836 0.0254245C327.975 -0.0397072 325.535 0.0299344 323.681 0.125522C323.1 0.155168 323.394 0.287689 322.993 0.31412C322.208 0.365646 321.477 0.300653 320.702 0.362032C320.445 0.383023 320.765 0.592935 320.495 0.610139C319.019 0.702909 317.622 0.649442 316.127 0.694063C308.759 0.914213 301.518 0.993012 294.061 1.08865C291.602 1.12001 288.613 1.31051 286.073 1.2272C285.777 1.21729 285.953 1.03304 285.897 1.01785C285.012 0.785374 285.306 1.15734 284.729 1.20676C282.436 1.40188 279.886 1.41886 277.68 1.34775C276.741 1.31696 277.682 0.950988 276.737 1.1564C276.672 1.17028 276.91 1.36594 276.652 1.38681C276.069 1.43375 274.961 1.39877 274.509 1.41428C273.637 1.44514 273.492 1.44317 272.667 1.4454C271.54 1.45015 270.199 1.54741 268.989 1.50308C268.731 1.49304 269.073 1.29246 268.661 1.25833C268.249 1.22425 267.158 1.24126 266.791 1.28854C266.423 1.33585 266.58 1.4935 266.515 1.52963C265.979 1.83462 264.718 1.41221 264.556 1.40176C261.597 1.22377 259.059 1.4644 256.282 1.46371C254.173 1.46268 251.919 1.38324 249.912 1.39413C247.522 1.40789 245.496 1.51658 243.174 1.49789C242.929 1.49615 243.216 1.26032 242.917 1.25772C239.737 1.23028 236.579 1.25599 233.413 1.41519C233.095 1.43136 233.504 1.63842 233.187 1.66696C231.245 1.83712 228.171 2.24589 227.018 1.34439C225.702 1.37959 224.105 1.41596 222.928 1.59769C222.169 1.71464 222.906 1.94021 221.973 1.84396C221.763 1.82252 222.037 1.62498 221.721 1.60776C220.394 1.53544 218.943 1.59965 217.63 1.49759C217.363 1.47636 217.436 1.29936 217.36 1.26749C216.724 1.00935 215.665 1.43606 215.434 1.46707C213.676 1.69829 212.392 1.6073 210.755 1.61294C210.375 1.61435 210.824 1.3766 210.458 1.36941C208.562 1.33534 206.597 1.35577 204.74 1.46127C204.327 1.48531 204.707 1.68783 204.509 1.70968C203.639 1.80356 203.446 1.42104 202.611 1.50369C202.435 1.52062 202.535 1.694 202.502 1.71304C202 2.01194 201.564 1.58842 201.434 1.57907C199.8 1.45131 198.755 1.89345 197.176 1.83084C196.987 1.8229 197.413 1.60353 196.882 1.59463C193.344 1.53407 189.602 1.59434 186.1 1.7698C185.556 1.79679 185.945 1.96159 185.91 1.9819C185.352 2.29932 184.99 1.87402 184.813 1.858C183.412 1.7427 182.104 2.09937 181.152 1.5928C175.221 1.7686 169.316 1.48413 163.434 1.93796C163.359 1.94321 163.493 2.15267 163.344 2.16226C161.547 2.27987 161.892 1.95433 160.703 1.55618C160.404 1.4562 159.493 1.9369 159.412 1.97213C159.118 2.10198 159.423 2.4136 159.325 2.43875C158.511 2.63621 158.643 1.60565 157.546 1.60531C157.511 1.60703 157.656 1.79672 157.563 1.81558C157.277 1.87479 156.993 1.79942 156.713 1.86471C156.072 2.0158 155.844 2.51656 154.865 2.22512C154.741 2.1873 154.93 1.60272 153.95 1.63034C153.559 1.64184 151.829 1.63182 151.345 1.66971C150.861 1.70754 151.193 1.89592 151.158 1.90408C149.854 2.15318 150.349 2.25642 149.695 2.62521C149.041 2.99261 149.223 2.11633 148.956 2.01852C148.689 1.92099 147.733 2.12652 147.498 2.19796C147.263 2.26944 147.556 2.38914 147.347 2.42959C145.962 2.69386 146.739 1.99464 146.283 1.85556C145.207 1.52624 144.369 2.1761 143.384 2.23977C143.117 2.25697 143.335 2.10896 143.097 2.09512C142.157 2.04226 141.592 2.24503 140.523 2.05911C140.348 2.02881 139.483 1.6381 138.924 1.92483C138.844 1.96618 139.07 2.12812 138.669 2.16439C138.071 2.21883 136.992 2.25423 136.349 2.2001C135.874 2.16005 136.418 1.89321 135.821 1.9761C135.555 2.01312 136.047 2.16922 135.548 2.22573C135.052 2.28223 133.782 2.27538 133.299 2.26999C132.817 2.26448 133.081 2.06206 133.042 2.04843C132.806 1.97032 131.881 1.87271 131.799 1.87295C127.674 1.84824 123.87 2.18943 119.854 2.0765C119.539 2.06794 119.749 1.85449 119.701 1.85098C118.622 1.76155 119.473 2.32906 118.719 2.51901C118.828 2.08586 118.383 2.16429 117.623 2.11679C117.257 2.09354 117.456 1.92583 117.423 1.90866C116.88 1.65392 116.501 1.98295 116.404 2.05026C116.044 2.29786 115.653 2.0053 115.408 2.1708C115.164 2.33507 115.726 2.57858 114.998 2.57547C114.793 2.42041 115.334 2.01522 114.781 1.94955C112.693 1.70115 108.795 2.01907 107.116 2.05209C105.441 2.08509 104.9 2.05648 103.923 2.11252C102.16 2.21383 102.806 1.91321 101.711 1.7756C100.613 1.63801 101.147 2.3777 100.989 2.53671C100.834 2.69565 100.665 2.53204 100.472 2.61941C100.28 2.70676 100.696 2.81488 100.244 2.84768C99.7917 2.88045 98.5556 2.59769 98.3953 2.43142C98.0565 2.07918 98.6135 1.70948 97.4171 1.83938C97.3483 1.84709 97.5716 2.04159 97.3081 2.06125C95.2155 2.21098 93.0414 2.22026 90.9513 2.35269C90.6639 2.3712 90.9209 2.58757 90.7536 2.60079C89.0115 2.73919 89.6342 2.37436 88.6794 1.96908C88.8938 2.50842 88.3658 2.83839 87.0436 2.84158C86.2488 2.84368 86.3857 2.60812 85.8716 2.4421C85.7173 2.39206 85.155 2.5538 85.0531 2.44302C84.717 2.0809 85.2468 1.67553 83.8836 1.83694C83.8238 1.84461 84.0142 2.04283 83.8075 2.05484C82.4717 2.13341 82.3119 1.75464 80.868 1.70877C79.7361 1.67278 77.7232 1.90375 76.4345 1.94131C76.4616 2.54769 75.2443 2.40883 74.7505 1.99075C73.9142 2.00787 73.0109 1.98423 72.2025 2.04202C71.9243 2.06172 72.1071 2.23728 72.072 2.25625C71.5339 2.55383 71.1705 2.14708 70.9899 2.13113C69.0333 1.97612 67.4393 2.2844 65.5719 1.98312C65.5057 1.97227 65.3982 1.55106 64.8991 1.85861C64.8668 1.87981 65.4836 2.07145 64.6052 2.08627C63.7267 2.10112 62.0705 2.32692 60.8509 2.13174C60.5557 2.08475 59.8092 1.74282 59.21 2.00998C59.1301 2.04625 59.2176 2.16706 59.1023 2.23428C58.7298 2.44848 58.5264 2.02274 58.0887 2.38443C57.6509 2.74609 56.7402 3.01696 55.5102 2.76742C55.471 2.76017 55.1798 2.42273 54.793 2.42807C54.1755 2.43687 53.299 2.50717 52.6542 2.50497C52.3455 2.5038 52.5431 2.29426 52.4895 2.29043C50.4138 2.17302 48.9366 2.35981 46.7129 2.44088C46.3054 2.45616 45.1339 2.17043 44.3448 2.39633C43.4783 2.64361 44.3687 3.67228 42.377 3.42721C41.5737 3.32918 40.5567 2.02413 39.1131 2.70028C36.3133 2.53274 33.7241 2.87879 30.9164 2.63955C30.7902 2.62895 30.3909 2.26472 30.0941 2.26968C29.6535 2.27774 29.4115 2.44798 29.0969 2.45919C27.7784 2.51047 26.572 2.36482 25.3008 2.38748C24.8182 2.39571 24.9869 2.57173 24.4113 2.58157C23.8361 2.59124 23.4525 2.35946 22.6729 2.4714C22.0841 2.55673 21.4955 3.03049 20.714 3.08572C20.6842 2.6184 20.1475 2.62803 19.1935 2.50466C19.0101 2.48073 19.2068 2.31808 19.1201 2.29837C18.767 2.21454 18.4403 2.34934 18.1051 2.25808C18.0235 2.23617 18.0198 2.07657 17.9531 2.04965C17.3862 1.81462 16.4523 2.17361 16.292 2.23611C15.6772 2.47349 15.39 2.26592 14.9185 2.3594C14.4477 2.45287 15.1516 2.56971 14.6017 2.62643C13.4619 2.74375 11.9973 2.71797 10.8398 2.72531C10.3778 2.72725 10.693 2.51422 10.6269 2.50955C9.67184 2.45552 8.70599 2.68212 8.17639 2.25778C7.51419 3.35497 7.60049 2.15136 6.23526 2.371C6.12769 2.38876 5.99091 2.90762 6.40378 2.98379C6.81659 3.05989 7.44269 2.8977 8.01547 3.01644C8.15118 3.04431 8.92816 3.53051 9.03421 3.55996C9.86465 3.79013 9.98239 3.01478 10.0263 2.97219C10.5245 2.51261 11.4742 3.0364 11.7242 3.0726C12.8681 3.23843 13.8401 3.12939 14.7968 3.24777C15.4226 3.32427 15.4838 3.83216 15.9752 3.81661C17.6086 3.76523 18.1788 3.05672 19.7181 3.67104C20.0481 3.80207 19.7202 4.35717 20.9028 3.92068C20.9771 3.89316 21.8552 3.49384 22.3625 3.74642C22.4262 3.77827 22.4241 3.94004 22.5082 3.95363C23.0714 4.04154 23.4468 3.91266 24.0603 3.97439C24.6737 4.03611 25.4113 4.12813 26.1117 4.07326C26.5338 4.04045 27.0753 3.73904 27.2774 3.66524C27.8479 3.45266 28.4597 3.80121 28.8131 3.54378C29.1695 3.28507 28.4727 2.89216 29.4073 2.725C29.442 3.14531 29.5214 3.57672 29.5771 3.99941C31.6254 3.98461 33.6407 3.8487 35.6958 3.86727C35.9505 3.86999 35.69 4.09595 35.9631 4.1047C37.1155 4.14059 38.122 3.97951 39.3171 4.04366C40.2421 4.09418 41.2564 4.33342 42.2237 4.3937C42.8145 3.91274 44.2498 4.07602 45.2925 4.03206C45.6578 4.01688 45.6334 3.88842 45.8931 3.84652C46.8731 3.69153 46.4139 4.11655 46.6825 4.18343C47.8351 4.46889 47.9338 3.50689 49.2927 3.53066C49.3647 3.5316 50.2447 4.04438 50.3659 4.07631C51.136 4.28454 50.4933 3.89783 50.9753 3.85995C51.8553 3.79071 52.4668 3.66825 53.4993 3.81844C53.8004 3.86293 54.5226 4.18254 55.1072 3.93532C55.1842 3.90295 55.1416 3.73346 55.2036 3.72353C56.3241 3.55807 56.3536 4.09065 56.9939 4.27102C57.6344 4.45135 58.6235 4.0837 58.8248 3.97774C59.3515 3.70363 58.4213 3.8606 58.3927 3.8337C58.0578 3.51358 58.7791 3.5687 59.3304 3.54165C59.4101 3.01945 60.1811 3.0508 59.9018 3.51571C59.8701 3.56649 59.441 3.51779 59.3304 3.54165C59.8142 4.05399 60.6614 4.11961 61.5971 3.64083C62.0351 3.41643 61.6211 3.1548 62.9516 3.25051C63.5555 3.29372 63.3221 3.65328 63.8551 3.7513C65.0726 3.97496 66.6545 3.63956 67.9097 3.69241C68.3652 3.71159 67.9214 3.90841 68.2328 3.92831C69.059 3.98172 69.7876 3.83404 70.6174 3.90969C70.6925 3.91679 70.5089 4.12282 70.7669 4.12545C72.723 4.14938 74.4264 4.01741 76.4687 4.01375C77.4555 4.01208 79.2198 4.12571 80.242 4.10287C82.0137 4.06449 84.1933 3.76489 85.7069 3.83767C86.694 3.88426 86.4774 4.09033 86.9005 4.23073C87.7167 4.5029 89.1615 4.01539 89.356 3.9399C89.362 3.9374 88.5125 3.88882 88.9658 3.78304C89.2293 3.56263 89.3465 3.93895 89.356 3.9399C89.4838 3.89114 91.1807 3.84436 91.5176 3.88375C91.7007 3.90528 91.5983 4.10052 91.6938 4.10805C93.9629 4.28278 96.2358 4.3324 98.5372 4.24111C98.5777 4.23717 98.5167 4.01878 98.6119 4.01223C99.9443 3.91513 100.797 4.18229 101.896 4.3409C102.995 4.49945 103.866 4.44635 104.516 4.07143C105.345 4.11864 106.535 3.95289 107.219 3.85232C107.903 3.75175 107.999 4.17686 108.059 4.18526C109.937 4.45425 111.023 4.21092 112.972 4.17306C113.898 4.15432 115.736 4.21598 116.739 4.26247C117.531 4.29992 118.009 4.20029 118.739 4.264C118.838 4.2725 118.738 4.46179 118.768 4.46907C119.584 4.69554 119.192 4.23281 119.36 4.15017C119.97 3.84964 120.347 3.68958 121.391 3.83095C121.632 3.86333 122.333 4.5296 122.772 4.56856C123.343 4.618 123.128 4.37918 123.725 4.43703C123.776 4.44176 123.766 4.5891 124.134 4.5826C125.846 4.55438 127.713 4.46865 129.492 4.48342C129.735 4.48487 129.423 4.71856 129.774 4.72451C131.422 4.75221 133.227 4.74356 134.832 4.63417C135.227 4.60652 134.98 4.44289 135.065 4.39431C135.592 4.10035 136.339 4.52746 136.462 4.5356C139.4 4.74086 141.649 4.35432 144.644 4.53835C144.807 4.54915 146.062 5.00703 146.622 4.61434C146.661 4.58821 147.215 4.18644 147.704 4.46114C147.735 4.47833 147.39 4.68516 147.992 4.66408C148.594 4.64305 149.564 4.78117 150.392 4.55391C150.654 4.48232 151.274 4.08155 152.055 4.40102C152.106 4.42332 153.314 5.1457 153.745 4.6473C153.814 4.56526 153.741 4.03783 154.675 4.30825C154.853 4.36067 154.529 4.47832 154.999 4.55178C155.719 4.665 156.672 4.52373 157.557 4.75869C157.711 4.80028 158.368 5.15826 158.895 4.88655C158.978 4.844 158.821 4.66792 159.099 4.64821C160.422 4.55369 161.808 4.67147 163.151 4.54964C163.627 4.50683 163.384 4.22218 163.88 4.14589C164.376 4.06964 165.375 3.99628 165.894 4.12636C166.414 4.2565 165.846 4.71018 166.624 4.74648C170.006 4.90415 173.355 4.63801 176.732 4.59908C177.232 4.59327 176.817 4.7556 177.555 4.75869C180.276 4.77076 184.973 4.92297 187.334 4.57802C189.226 4.30174 186.846 4.0914 188.291 3.97896C188.989 3.92533 189.743 4.45277 189.912 4.46938C191.557 4.63806 192.7 4.40441 194.18 4.47609C194.486 4.49097 194.186 4.70475 194.446 4.71505C195.335 4.75212 196.269 4.6567 197.119 4.67415C197.5 4.68247 197.43 4.84575 197.78 4.83315C198.619 4.80488 199.361 4.73624 200.179 4.58321C200.253 4.56927 199.751 4.36616 200.371 4.3586C201.376 4.34695 202.623 4.19599 203.778 4.35189C204.121 4.39879 204.135 4.77195 204.872 4.51424C205.027 4.46042 204.829 4.01233 205.688 4.3995C205.832 4.46383 207.275 4.98605 207.983 4.64943C208.169 4.56084 208.646 4.19417 209.058 4.25179C209.114 4.26099 208.89 4.46143 209.232 4.48098C210.436 4.54639 211.698 4.52501 212.935 4.58779C213.266 4.60495 212.774 4.81236 213.266 4.83132C214.62 4.88374 216.311 4.83093 217.635 4.76601C218.123 4.74168 217.786 4.56986 217.821 4.55117C218.393 4.24704 218.73 4.65754 218.92 4.68148C220.099 4.8248 220.997 4.63197 222.084 4.683C222.384 4.69656 222.171 4.89229 222.231 4.90975C222.85 5.08027 222.389 4.72877 222.781 4.69002C223.879 4.58031 225.103 4.59604 226.213 4.62105C226.621 4.63053 226.163 4.85748 226.529 4.86336C228.695 4.90247 230.947 4.88075 233.062 4.75563C233.46 4.73166 233.209 4.5569 233.292 4.51699C233.864 4.23773 234.702 4.61864 234.895 4.65493C235.772 4.8206 236.112 4.66606 236.887 4.6949C240.67 4.83852 245.34 4.73617 248.911 4.67293C253.564 4.59155 257.175 4.42529 261.612 4.46846C261.894 4.47099 261.61 4.70348 261.853 4.70864C264.992 4.76468 268.082 4.67384 271.227 4.74099C271.485 4.74608 271.113 4.96648 271.527 4.98207C272.377 5.0156 273.453 5.00362 274.312 4.93325C274.731 4.89934 274.169 4.71022 274.591 4.67995C275.573 4.60905 276.626 4.59335 277.634 4.62868C278.064 4.6442 277.416 4.86961 277.974 4.87221C281.775 4.89457 285.508 4.9334 289.348 4.6415C289.612 4.62145 289.843 4.16333 290.403 4.25118C290.445 4.37832 290.442 4.52788 290.461 4.66378C295.994 4.73698 301.47 4.57816 307.019 4.55361C307.253 4.55263 306.849 4.79536 307.301 4.7947C309.923 4.79111 312.468 4.85835 315.15 4.61708C315.416 4.59349 315.279 4.16645 316.063 4.23104C316.201 4.24282 317.382 4.29978 317.688 4.39248C317.729 4.40646 317.514 4.60578 317.894 4.61159C320.105 4.64186 322.422 4.59635 324.63 4.47457C324.986 4.45453 324.607 4.24227 324.86 4.22616C326.66 4.11348 328.618 4.27484 330.338 4.08211C331.489 3.95235 331.063 3.58543 331.675 3.22427C331.761 3.17331 332.474 3.16524 332.511 2.9551C332.606 2.4267 332.26 1.84811 332.402 1.28488C332.432 1.16357 333.387 1.29423 332.821 1.00107C332.782 0.981448 332.09 0.88415 331.919 0.784699C331.801 0.715941 332.014 0.502234 331.772 0.414217C331.53 0.326282 331.264 0.505423 330.863 0.40201C330.461 0.297318 330.638 0.0542035 329.836 0.0254245ZM110.301 3.40279C110.934 3.19864 111.028 3.94638 110.342 3.76748C110.309 3.75794 110.268 3.41281 110.301 3.40279ZM33.6292 3.28469C34.4576 2.95489 35.0246 3.43983 34.4401 3.69454C33.8558 3.94898 33.3768 3.38467 33.6292 3.28469ZM25.0385 3.04391C26.0067 2.78387 26.1591 3.84419 25.1221 3.62984C25.0618 3.61773 24.982 3.05901 25.0385 3.04391ZM328.838 3.12142C328.847 3.11149 329.359 3.10182 329.371 3.11166C329.644 3.34914 328.619 3.36832 328.838 3.12142ZM16.5137 2.78176C16.8159 2.63833 17.6862 2.80391 17.3107 2.98226C17.0083 3.12575 16.1372 2.96018 16.5137 2.78176ZM143.357 2.60476C143.367 2.59362 143.734 2.58359 143.727 2.64657C143.702 2.84943 143.191 2.79218 143.357 2.60476ZM2.02478 2.76956C4.16547 2.72964 5.46335 1.85377 3.1322 1.9526C2.71011 1.97049 4.04199 2.23191 3.50473 2.31088C2.52158 2.45474 1.86874 1.9048 0.865417 2.19949C0.683868 2.25343 1.90268 2.77378 2.02859 2.77078C2.02731 2.77037 2.02612 2.76996 2.02478 2.76956ZM110.666 2.50466C110.678 2.49478 111.187 2.4854 111.199 2.4952C111.474 2.73259 110.45 2.75162 110.666 2.50466ZM164.795 2.14242C164.823 2.12135 166.003 2.10165 166.041 2.12106C166.657 2.50925 164.271 2.55024 164.795 2.14242ZM76.4142 1.95749C75.8593 1.71868 75.1955 1.69056 74.7531 1.99045C75.3046 1.97453 75.8597 1.97218 76.4142 1.95749Z" fill="#F37F20"/>
</svg>
