<svg width="294" height="101" viewBox="0 0 294 101" fill="none" xmlns="http://www.w3.org/2000/svg">
<g clip-path="url(#clip0_227_614)">
<path d="M5.61978 27.66C4.31978 35.16 9.87978 42.87 16.9698 48.3C24.0598 53.74 32.6698 57.58 40.3598 62.41C44.7398 65.17 48.8998 68.44 51.9998 72.15C63.1398 87.24 48.8498 98.99 48.8498 98.99C46.3598 92.41 39.2298 88.95 31.9298 85.36C24.6298 81.77 16.6998 78.75 10.8598 73.63C3.89978 67.53 0.809782 59.07 0.619782 51.03C0.429782 42.98 2.86978 35.22 5.60978 27.67L5.61978 27.66Z" fill="#F27F20"/>
<path d="M1.83992 66.9301C3.74992 72.6001 9.47992 77.1401 15.5899 80.5501C21.6999 83.9601 28.0499 87.2601 34.2199 90.3701C38.6899 92.6201 43.3299 95.4401 45.2099 99.2201C45.0899 99.1301 40.0899 99.5601 30.6699 99.3501C30.6699 99.3501 19.6999 99.5501 12.2099 96.2201C11.8399 96.0401 11.4799 95.8601 11.1199 95.6701C8.90992 94.6201 6.90992 93.3401 5.24992 91.7201C1.73992 88.2901 0.219917 83.8301 0.0299171 79.5401C-0.170083 75.2501 0.839917 71.0701 1.84992 66.9301H1.83992Z" fill="#F27F20"/>
<path d="M65.3197 36.56H66.2097C67.0997 36.56 69.7597 37.23 69.7597 37.23C69.7597 37.23 67.5397 35.34 63.5397 33.9C61.6997 33.24 59.5197 32.88 57.6897 32.69C62.0297 29.23 65.1997 24.3 64.3497 18.67C63.0797 10.3 56.6497 3.86004 49.4097 1.70004C33.1297 -3.17996 20.6397 3.21004 14.8897 11.45C8.01972 21.3 5.27972 31.81 13.8697 40.2C14.2097 40.53 16.2897 43.04 19.2997 45.06C25.0797 48.94 33.9897 53.6 39.2897 56.87C46.2997 61.2 51.3797 66.93 51.3797 66.93C51.3797 66.93 51.0597 58.61 43.0297 52.13C37.7197 47.84 27.9797 43.45 29.1697 40.01C30.6497 35.72 40.8697 42.21 53.8797 35.2C54.4797 34.88 55.0697 34.53 55.6497 34.15C57.0297 34.46 58.6797 34.91 60.4197 35.6C64.9297 37.38 68.2397 39.92 68.2397 39.92L67.7297 39.22C67.2197 38.52 65.3297 36.55 65.3297 36.55L65.3197 36.56ZM40.2197 24.92H39.9897C37.6497 24.92 35.7397 23.02 35.7397 20.67V15.41C35.7397 13.07 37.6397 11.16 39.9897 11.16H40.2197C42.5597 11.16 44.4697 13.06 44.4697 15.41V20.67C44.4697 23.01 42.5697 24.92 40.2197 24.92Z" fill="#224083"/>
<path d="M57.5497 77.4601C57.5497 77.4601 66.1097 79.3701 71.7697 76.0701C77.4297 72.7801 77.3397 68.0601 77.3397 68.0601C77.3397 68.0601 79.5797 83.2101 71.6997 89.6201C63.8197 96.0301 55.1997 97.2501 55.1997 97.2501C55.1997 97.2501 57.9097 93.0301 58.7997 87.5201C59.7197 81.7701 57.5597 77.4501 57.5597 77.4501L57.5497 77.4601Z" fill="#224083"/>
<path d="M168.1 2.84003C167.77 2.23003 167 1.98003 164.83 1.76003C162.99 1.57003 161.38 1.48003 160.04 1.48003C154.21 1.48003 151.13 2.44003 150.35 4.51003L145.58 16.08L141.45 4.55003C140.74 2.41003 137.5 1.41003 131.27 1.41003C129.83 1.41003 128.03 1.54003 125.94 1.79003C123.18 2.13003 122.62 2.43003 122.34 3.03003C122.19 3.35003 122.21 3.72003 122.38 4.03003L136.98 32.69V48.75C136.98 50.62 139.46 51.17 141.63 51.45C142.89 51.59 144.17 51.66 145.44 51.66C146.71 51.66 148.02 51.56 149.33 51.38C151.49 51.11 153.96 50.56 153.96 48.75V32.27L168.1 3.86003C168.26 3.53003 168.26 3.14003 168.08 2.82003L168.1 2.84003Z" fill="#224083"/>
<path d="M198.46 35.91C197.41 34.47 196.79 33.96 196.12 33.96C195.92 33.96 195.3 33.96 194.87 34.39C194.59 34.67 193.96 35.08 192.57 35.39C191.35 35.67 190.24 35.81 189.26 35.81C186.98 35.81 185.15 35 183.67 33.33C182.18 31.66 181.42 28.99 181.42 25.39C181.42 21.79 182.16 19.12 183.61 17.44C185.05 15.78 186.9 14.97 189.26 14.97C189.94 14.97 190.79 15.11 191.77 15.38C193.13 15.76 193.42 15.98 193.45 16C193.94 16.41 194.4 16.61 194.88 16.61C196.15 16.61 197.36 15.36 198.81 12.55C200.11 10.03 200.73 7.95 200.73 6.17C200.73 4.12 199.23 2.53 196.28 1.44C193.66 0.49 190.58 0 187.15 0C180.9 0 175.62 2.35 171.45 6.97C167.3 11.57 165.2 17.93 165.2 25.88C165.2 33.83 167.25 40.11 171.28 44.53C175.34 48.97 180.58 51.22 186.87 51.22C190.72 51.22 194.11 50.67 196.95 49.58C200.1 48.37 201.7 46.63 201.7 44.41C201.7 43.37 201.36 41.98 200.67 40.19C200 38.45 199.26 37.01 198.46 35.92V35.91Z" fill="#224083"/>
<path d="M283.81 0.620049C279.39 0.620049 276.45 1.01005 276.45 2.91005V20.3601L267.36 2.87005L267.33 2.82005C266.74 1.84005 265.41 1.24005 263.15 0.940049C261.22 0.680049 259.5 0.550049 258.06 0.550049C254.01 0.550049 251.66 0.880049 251.66 2.57005V48.39C251.66 50.01 253.65 50.6101 258.99 50.6101C264.33 50.6101 266.32 50.01 266.32 48.39V31.0401L275.89 48.92C276.4 49.88 277.89 50.4701 283.75 50.4701C287.61 50.4701 291.18 50.18 291.18 48.0401V2.91005C291.18 1.01005 288.24 0.620049 283.82 0.620049H283.81Z" fill="#224083"/>
<path d="M112.5 96.47V58.08C112.5 57.01 112.77 56.17 113.3 55.55C113.83 54.93 114.53 54.62 115.38 54.62H126.07C132.85 54.62 138 56.33 141.52 59.74C145.04 63.15 146.8 68.53 146.8 75.86C146.8 91.56 140.1 99.41 126.71 99.41H115.77C113.59 99.41 112.51 98.43 112.51 96.47H112.5ZM124.78 66.78V85.91C124.78 86.81 124.84 87.37 124.97 87.61C125.1 87.84 125.48 87.96 126.12 87.96C128.47 87.96 130.25 87.09 131.46 85.34C132.68 83.59 133.28 80.68 133.28 76.61C133.28 72.54 132.65 69.88 131.39 68.64C130.13 67.4 128.14 66.78 125.41 66.78H124.77H124.78Z" fill="#224083"/>
<path d="M182.64 99.41H161.4C159.91 99.41 158.86 97.96 158.26 95.06C157.96 93.48 157.81 92.29 157.81 91.48C157.81 90.67 157.94 90.14 158.19 89.88C167.74 80.03 172.52 73.33 172.52 69.79C172.52 68.6 172.21 67.7 171.59 67.1C170.97 66.5 169.99 66.2 168.65 66.2C167.31 66.2 165.96 66.46 164.62 66.97C163.28 67.48 162.22 68.04 161.45 68.63C159.79 66.63 158.64 64.51 158 62.3C157.79 61.57 157.68 60.9 157.68 60.28C157.68 59.66 157.79 59.07 158 58.52C158.34 57.41 159.93 56.37 162.77 55.38C165.61 54.4 168.6 53.91 171.76 53.91C181.31 53.91 186.09 58.16 186.09 66.64C186.09 70.39 184.81 74.2 182.25 78.06C179.69 81.92 176.7 85.26 173.29 88.07L186.22 87.56C186.43 89.82 186.54 91.78 186.54 93.45C186.54 95.12 186.2 96.52 185.52 97.67C184.84 98.82 183.88 99.4 182.64 99.4V99.41Z" fill="#F27F20"/>
<path d="M208.97 100.05C203.62 100.05 199.24 98.09 195.85 94.16C192.46 90.24 190.76 84.5 190.76 76.95C190.76 69.4 192.47 63.69 195.88 59.83C199.29 55.97 203.7 54.04 209.09 54.04C214.48 54.04 218.85 55.96 222.18 59.8C225.51 63.64 227.17 69.42 227.17 77.14C227.17 84.86 225.47 90.61 222.08 94.38C218.69 98.16 214.32 100.04 208.96 100.04L208.97 100.05ZM208.97 66.33C207.33 66.33 205.94 67.26 204.81 69.11C203.68 70.97 203.11 73.6 203.11 77.01C203.11 80.42 203.65 83.04 204.74 84.85C205.83 86.66 207.24 87.57 208.96 87.57C210.68 87.57 212.09 86.65 213.18 84.82C214.27 82.99 214.81 80.36 214.81 76.95C214.81 73.54 214.24 70.91 213.11 69.08C211.98 67.25 210.59 66.33 208.95 66.33H208.97Z" fill="#F27F20"/>
<path d="M257.12 99.41H235.88C234.39 99.41 233.34 97.96 232.74 95.06C232.44 93.48 232.29 92.29 232.29 91.48C232.29 90.67 232.42 90.14 232.67 89.88C242.22 80.03 247 73.33 247 69.79C247 68.6 246.69 67.7 246.07 67.1C245.45 66.5 244.47 66.2 243.13 66.2C241.79 66.2 240.44 66.46 239.1 66.97C237.76 67.48 236.7 68.04 235.93 68.63C234.27 66.63 233.12 64.51 232.48 62.3C232.27 61.57 232.16 60.9 232.16 60.28C232.16 59.66 232.27 59.07 232.48 58.52C232.82 57.41 234.41 56.37 237.25 55.38C240.09 54.4 243.08 53.91 246.24 53.91C255.79 53.91 260.57 58.16 260.57 66.64C260.57 70.39 259.29 74.2 256.73 78.06C254.17 81.92 251.18 85.26 247.77 88.07L260.7 87.56C260.91 89.82 261.02 91.78 261.02 93.45C261.02 95.12 260.68 96.52 260 97.67C259.32 98.82 258.36 99.4 257.12 99.4V99.41Z" fill="#F27F20"/>
<path d="M290.33 54.62C291.14 54.62 291.55 56.39 291.55 59.93C291.55 61.04 291.45 62.35 291.26 63.87C291.07 65.38 290.72 66.14 290.2 66.14H277.72L277.66 70.81H279.77C284.33 70.81 287.74 72.13 289.98 74.78C292.22 77.43 293.34 80.92 293.34 85.27C293.34 89.62 291.8 93.17 288.73 95.92C285.66 98.67 281.71 100.05 276.89 100.05C272.07 100.05 268.55 99.37 266.33 98C265.99 97.45 265.82 96.58 265.82 95.41C265.82 94.24 265.99 92.57 266.33 90.42C266.67 88.27 267.14 87.19 267.74 87.19C267.78 87.19 267.91 87.28 268.12 87.45C271.15 88.69 273.46 89.31 275.06 89.31C276.66 89.31 277.98 88.87 279.03 88C280.08 87.13 280.6 86.01 280.6 84.64C280.6 81.23 278.77 79.52 275.1 79.52L269.6 79.58C269.17 79.67 268.75 79.48 268.32 79.04C267.89 78.59 267.68 78.01 267.68 77.28V57.25C267.68 55.5 268.32 54.63 269.6 54.63H290.33V54.62Z" fill="#F27F20"/>
<path fill-rule="evenodd" clip-rule="evenodd" d="M241.92 6.43C237.77 2.16 232.27 0 225.56 0C218.85 0 213.29 2.2 209.03 6.53C204.77 10.86 202.62 17.25 202.62 25.54C202.62 33.83 204.75 40.24 208.96 44.62C213.18 49 218.69 51.22 225.36 51.22C232.03 51.22 237.54 49.08 241.78 44.87C246.02 40.66 248.17 34.2 248.17 25.68C248.17 17.16 246.07 10.69 241.93 6.43H241.92ZM228.92 21.46C228.89 22.46 228.21 23.25 227.42 23.22C226.62 23.19 226.01 22.36 226.04 21.36C226.07 20.36 226.75 19.57 227.54 19.6C228.34 19.63 228.95 20.46 228.92 21.46ZM224.85 21.46C224.82 22.46 224.14 23.25 223.35 23.22C222.55 23.19 221.94 22.36 221.97 21.36C222 20.36 222.68 19.57 223.47 19.6C224.27 19.63 224.88 20.46 224.85 21.46ZM230.17 33.35C228.92 35.06 227.34 35.89 225.35 35.89C223.36 35.89 221.8 35.07 220.57 33.39C219.29 31.63 218.64 29.02 218.64 25.62C218.64 22.22 219.32 19.58 220.67 17.75C220.85 17.5 221.04 17.28 221.23 17.07C221.64 17.63 221.68 18.46 221.06 19.56C220.44 20.66 219.9 22.49 220.09 23.64C220.36 25.23 222.27 27.6 222.73 28.91C223.19 30.23 224.31 30.32 225.38 30.32C226.45 30.32 227.58 30.23 228.03 28.91C228.49 27.59 230.4 25.22 230.67 23.64C230.86 22.49 230.32 20.66 229.7 19.56C229.07 18.44 229.12 17.61 229.55 17.05C229.74 17.25 229.92 17.46 230.09 17.7C231.43 19.48 232.12 22.11 232.12 25.53C232.12 28.95 231.46 31.59 230.15 33.37L230.17 33.35Z" fill="#224083"/>
<path d="M99.5898 68.17V88.4H104.07C104.79 88.4 105.31 89.32 105.61 91.15C105.78 92.05 105.87 92.96 105.87 93.9C105.87 94.84 105.78 95.76 105.61 96.65C105.31 98.48 104.8 99.4 104.07 99.4H82.5098C81.7798 99.4 81.2898 98.48 81.0398 96.65C80.8698 95.75 80.7798 94.84 80.7798 93.9C80.7798 92.96 80.8698 92.04 81.0398 91.15C81.2998 89.32 81.7898 88.4 82.5098 88.4H86.9298V68.17C86.9298 66.76 88.0698 65.62 89.4798 65.62H97.0498C98.4598 65.62 99.5998 66.76 99.5998 68.17H99.5898Z" fill="#224083"/>
<path d="M85.4997 38.65C85.0597 41.21 87.7997 45.12 89.9997 47.24C92.1997 49.36 94.8897 50.85 97.5197 52.5C99.0197 53.44 100.89 54.49 101.96 55.76C105.77 60.92 100.94 65.39 100.94 65.39C100.09 63.14 97.5997 61.5 95.0997 60.28C92.5997 59.05 89.8897 58.02 87.8897 56.27C85.5097 54.18 84.5997 51.28 84.3897 48.54C84.1797 45.8 84.5597 41.24 85.4997 38.66V38.65Z" fill="#F27F20"/>
<path d="M84.7997 53.65C85.4497 55.59 87.4097 57.14 89.4997 58.31C91.5897 59.48 93.8897 60.38 95.8697 61.67C97.2497 62.57 98.4797 63.74 99.1197 65.03C99.0797 65 97.7997 64.13 94.5297 64.48C94.5297 64.48 90.8997 64.81 88.3397 63.67C88.2097 63.61 88.0897 63.55 87.9697 63.48C87.2197 63.12 86.5297 62.68 85.9597 62.13C84.7597 60.96 84.2397 59.43 84.1697 57.97C84.0997 56.5 84.4497 55.07 84.7897 53.66L84.7997 53.65Z" fill="#F27F20"/>
<path d="M124.6 28.1901H125.25C125.9 28.1901 127.86 28.6801 127.86 28.6801C127.86 28.6801 126.23 27.3001 123.3 26.2401C121.95 25.7501 120.35 25.4901 119.01 25.3501C122.19 22.8201 124.52 19.1901 123.89 15.0701C122.96 8.94005 118.24 4.21005 112.94 2.63005C104.28 0.0400511 97.0797 1.79005 92.1697 5.26005C90.3097 6.57005 88.6997 9.11005 87.7897 10.9201C86.9997 12.4901 86.4397 13.9401 86.0597 15.3401H85.9597V15.7701C84.7597 20.5701 85.5797 24.8001 85.9597 31.0501V37.5801C85.9597 38.6701 88.0797 43.58 91.1297 46.37C95.3197 50.2001 100.76 52.3601 100.76 52.3601C100.76 51.71 100.83 43.6301 101.01 41.2001L101.12 29.5501C104.37 29.6401 109.82 30.6301 116.2 27.2001C116.64 26.9601 117.07 26.7101 117.5 26.4301C118.51 26.6501 119.72 26.9901 121 27.4901C124.31 28.7901 126.73 30.6601 126.73 30.6601L126.36 30.1501C125.99 29.6401 124.6 28.1901 124.6 28.1901ZM109.52 17.05C109.52 18.7701 108.13 20.1601 106.41 20.1601C104.69 20.1601 103.3 18.7701 103.3 17.05V13.4601C103.3 11.7401 104.69 10.3501 106.41 10.3501C108.13 10.3501 109.52 11.7401 109.52 13.4601V17.05Z" fill="#224083"/>
</g>
<defs>
<clipPath id="clip0_227_614">
<rect width="293.34" height="100.05" fill="white"/>
</clipPath>
</defs>
</svg>
