<svg width="211" height="275" viewBox="0 0 211 275" fill="none" xmlns="http://www.w3.org/2000/svg">
<g opacity="0.5" clip-path="url(#clip0_1826_1315)">
<path d="M49.4342 46.651C47.2404 59.2903 56.631 72.2963 68.6025 81.4659C80.574 90.6356 95.1164 97.1088 108.11 105.267C115.506 109.917 122.534 115.438 127.775 121.693C146.596 147.15 122.464 166.947 122.464 166.947C118.265 155.854 106.214 150.015 93.8955 143.958C81.5666 137.901 68.1657 132.816 58.3086 124.182C46.5455 113.882 41.3241 99.6169 41.0065 86.0458C40.6888 72.4747 44.8084 59.3795 49.4441 46.6411L49.4342 46.651Z" fill="#F27F20"/>
<path d="M43.0617 112.881C46.2878 122.437 55.9663 130.09 66.28 135.85C76.5938 141.609 87.3244 147.17 97.7374 152.404C105.282 156.201 113.124 160.95 116.29 167.334C116.082 167.195 107.644 167.909 91.7318 167.552C91.7318 167.552 73.2088 167.899 60.5623 162.268C59.9468 161.961 59.3215 161.663 58.7259 161.336H58.7358C55.0133 159.572 51.6283 157.411 48.8191 154.675C42.883 148.885 40.3219 141.371 39.9844 134.145C39.6469 126.918 41.3543 119.86 43.0517 112.881H43.0617Z" fill="#F27F20"/>
<path d="M150.259 61.6596H151.758C153.256 61.6596 157.763 62.7798 157.763 62.7798C157.763 62.7798 154.011 59.5977 147.261 57.159C144.164 56.0388 140.471 55.4341 137.384 55.107C144.71 49.2781 150.07 40.9511 148.631 31.4642C146.487 17.3578 135.617 6.49305 123.407 2.84502C95.9005 -5.37296 74.8065 5.41251 65.0883 19.3107C53.4742 35.9152 48.8583 53.6399 63.3611 67.7958C63.9369 68.3609 67.4509 72.5839 72.5333 75.994C82.2912 82.5366 97.3498 90.3977 106.284 95.9094C118.126 103.205 126.693 112.871 126.693 112.871C126.693 112.871 126.157 98.8437 112.587 87.9095C103.614 80.673 87.175 73.2778 89.1802 67.4687C91.6817 60.2321 108.944 71.1861 130.912 59.3597C131.924 58.8145 132.927 58.2197 133.91 57.5952C136.232 58.1107 139.032 58.8839 141.97 60.0437C149.594 63.0474 155.172 67.3299 155.172 67.3299L154.309 66.1502C153.445 64.9706 150.249 61.6497 150.249 61.6497L150.259 61.6596ZM107.673 42.0217C103.604 42.0217 100.308 38.7305 100.308 34.6661V26.1805C100.308 22.1161 103.604 18.825 107.673 18.825C111.743 18.825 115.039 22.1161 115.039 26.1805V34.6661C115.039 38.7305 111.743 42.0217 107.673 42.0217Z" fill="#223F82"/>
<path d="M137.136 130.635C137.136 130.635 151.589 133.847 161.148 128.296C170.708 122.734 170.559 114.794 170.559 114.794C170.559 114.794 174.341 140.34 161.029 151.155C147.718 161.971 133.155 164.032 133.155 164.032C133.155 164.032 137.741 156.915 139.23 147.626C140.789 137.931 137.146 130.635 137.146 130.635H137.136Z" fill="#223F82"/>
<path d="M86.6788 178.625C86.3512 178.02 85.5868 177.772 83.4328 177.554C81.6063 177.366 80.0081 177.276 78.6779 177.276C72.8907 177.276 69.8333 178.228 69.059 180.28L64.3241 191.75L60.2244 180.32C59.5196 178.198 56.3033 177.207 50.1191 177.207C48.6896 177.207 46.9028 177.336 44.8282 177.584C42.0884 177.921 41.5326 178.218 41.2546 178.813C41.1057 179.13 41.1256 179.497 41.2943 179.804L55.7872 208.215V224.136C55.7872 225.99 58.249 226.535 60.403 226.812C61.6538 226.951 62.9244 227.02 64.1851 227.02C65.4458 227.02 66.7461 226.921 68.0465 226.743C70.1907 226.475 72.6425 225.93 72.6425 224.136V207.799L86.6788 179.636C86.8376 179.309 86.8376 178.922 86.6589 178.605L86.6788 178.625Z" fill="#223F82"/>
<path d="M116.816 211.417C115.774 209.99 115.158 209.484 114.493 209.484C114.295 209.484 113.679 209.484 113.252 209.911C112.974 210.188 112.349 210.595 110.969 210.902C109.758 211.179 108.656 211.318 107.683 211.318C105.42 211.318 103.604 210.515 102.134 208.86C100.655 207.204 99.9009 204.557 99.9009 200.989C99.9009 197.42 100.635 194.773 102.075 193.108C103.504 191.462 105.341 190.659 107.683 190.659C108.358 190.659 109.202 190.798 110.175 191.066C111.525 191.442 111.813 191.66 111.843 191.68C112.329 192.087 112.786 192.285 113.262 192.285C114.523 192.285 115.724 191.046 117.163 188.26C118.454 185.762 119.069 183.7 119.069 181.936C119.069 179.903 117.58 178.327 114.652 177.247C112.041 176.285 108.984 175.79 105.579 175.79C99.3748 175.79 94.1336 178.119 89.9942 182.699C85.8746 187.259 83.79 193.564 83.79 201.445C83.79 209.326 85.825 215.551 89.8254 219.933C93.8556 224.334 99.0572 226.565 105.301 226.565C109.123 226.565 112.488 226.019 115.307 224.939C118.434 223.739 120.022 222.014 120.022 219.814C120.022 218.783 119.685 217.405 119 215.63C118.335 213.906 117.6 212.478 116.806 211.397L116.816 211.417Z" fill="#223F82"/>
<path d="M201.54 176.424C197.152 176.424 194.234 176.81 194.234 178.694V195.992L185.211 178.654L185.181 178.605C184.595 177.633 183.275 177.038 181.032 176.741C179.116 176.483 177.408 176.354 175.979 176.354C171.959 176.354 169.626 176.682 169.626 178.357V223.779C169.626 225.385 171.601 225.98 176.902 225.98C182.203 225.98 184.178 225.385 184.178 223.779V206.58L193.678 224.304C194.184 225.256 195.663 225.841 201.48 225.841C205.312 225.841 208.856 225.553 208.856 223.432V178.694C208.856 176.81 205.938 176.424 201.55 176.424H201.54Z" fill="#223F82"/>
<path d="M31.4873 271.451V233.395C31.4873 232.334 31.7553 231.501 32.2814 230.887C32.8075 230.272 33.5024 229.965 34.3462 229.965H44.9577C51.688 229.965 56.8002 231.66 60.2943 235.04C63.7885 238.421 65.5356 243.754 65.5356 251.02C65.5356 266.584 58.8847 274.366 45.593 274.366H34.7333C32.5693 274.366 31.4972 273.394 31.4972 271.451H31.4873ZM43.6871 242.019V260.983C43.6871 261.875 43.7467 262.43 43.8757 262.668C44.0048 262.896 44.382 263.015 45.0173 263.015C47.35 263.015 49.117 262.153 50.3181 260.418C51.5291 258.683 52.1247 255.798 52.1247 251.764C52.1247 247.729 51.4993 245.092 50.2486 243.863C48.9978 242.634 47.0224 242.019 44.3125 242.019H43.6772H43.6871Z" fill="#223F82"/>
<path d="M101.113 274.365H80.0286C78.5496 274.365 77.5073 272.928 76.9117 270.053C76.6139 268.487 76.465 267.307 76.465 266.504C76.465 265.701 76.594 265.176 76.8422 264.918C86.3221 255.154 91.067 248.512 91.067 245.003C91.067 243.823 90.7593 242.931 90.1438 242.336C89.5284 241.741 88.5556 241.444 87.2254 241.444C85.8953 241.444 84.5552 241.702 83.225 242.207C81.8948 242.713 80.8426 243.268 80.0783 243.853C78.4304 241.87 77.2889 239.769 76.6536 237.578C76.4451 236.854 76.3359 236.19 76.3359 235.575C76.3359 234.961 76.4451 234.376 76.6536 233.831C76.9911 232.73 78.5694 231.699 81.3886 230.718C84.2077 229.746 87.1758 229.261 90.3126 229.261C99.7925 229.261 104.537 233.474 104.537 241.88C104.537 245.598 103.267 249.374 100.726 253.201C98.1844 257.027 95.2163 260.338 91.8314 263.124L104.666 262.618C104.875 264.859 104.984 266.802 104.984 268.457C104.984 270.113 104.647 271.501 103.972 272.641C103.297 273.781 102.344 274.356 101.113 274.356V274.365Z" fill="#F27F20"/>
<path d="M127.249 275C121.938 275 117.591 273.057 114.225 269.161C110.86 265.275 109.173 259.585 109.173 252.101C109.173 244.616 110.87 238.956 114.255 235.129C117.64 231.303 122.018 229.39 127.368 229.39C132.719 229.39 137.057 231.293 140.362 235.1C143.668 238.906 145.316 244.636 145.316 252.289C145.316 259.942 143.628 265.642 140.263 269.379C136.898 273.126 132.56 274.99 127.239 274.99L127.249 275ZM127.249 241.573C125.621 241.573 124.241 242.495 123.12 244.329C121.998 246.173 121.432 248.78 121.432 252.16C121.432 255.54 121.968 258.138 123.05 259.932C124.132 261.726 125.532 262.628 127.239 262.628C128.947 262.628 130.346 261.716 131.428 259.902C132.51 258.088 133.046 255.481 133.046 252.101C133.046 248.72 132.481 246.113 131.359 244.299C130.237 242.485 128.857 241.573 127.229 241.573H127.249Z" fill="#F27F20"/>
<path d="M175.046 274.365H153.962C152.483 274.365 151.441 272.928 150.845 270.053C150.547 268.487 150.399 267.307 150.399 266.504C150.399 265.701 150.528 265.176 150.776 264.918C160.256 255.154 165.001 248.512 165.001 245.003C165.001 243.823 164.693 242.931 164.077 242.336C163.462 241.741 162.489 241.444 161.159 241.444C159.829 241.444 158.489 241.702 157.159 242.207C155.828 242.713 154.776 243.268 154.012 243.853C152.364 241.87 151.222 239.769 150.587 237.578C150.379 236.854 150.27 236.19 150.27 235.575C150.27 234.961 150.379 234.376 150.587 233.831C150.925 232.73 152.503 231.699 155.322 230.718C158.141 229.746 161.109 229.261 164.246 229.261C173.726 229.261 178.471 233.474 178.471 241.88C178.471 245.598 177.2 249.374 174.659 253.201C172.118 257.027 169.15 260.338 165.765 263.124L178.6 262.618C178.809 264.859 178.918 266.802 178.918 268.457C178.918 270.113 178.58 271.501 177.905 272.641C177.23 273.781 176.277 274.356 175.046 274.356V274.365Z" fill="#F27F20"/>
<path d="M208.013 229.964C208.817 229.964 209.224 231.719 209.224 235.228C209.224 236.329 209.125 237.627 208.936 239.134C208.747 240.631 208.4 241.384 207.884 241.384H195.495L195.436 246.014H197.53C202.057 246.014 205.442 247.322 207.665 249.949C209.889 252.576 211.001 256.036 211.001 260.348C211.001 264.66 209.472 268.179 206.424 270.906C203.377 273.632 199.456 275 194.671 275C189.887 275 186.393 274.326 184.189 272.967C183.851 272.422 183.683 271.56 183.683 270.4C183.683 269.24 183.851 267.585 184.189 265.453C184.526 263.322 184.993 262.251 185.589 262.251C185.628 262.251 185.757 262.341 185.966 262.509C188.974 263.738 191.267 264.353 192.855 264.353C194.443 264.353 195.753 263.917 196.796 263.054C197.838 262.192 198.354 261.082 198.354 259.724C198.354 256.343 196.538 254.648 192.895 254.648L187.435 254.708C187.008 254.797 186.591 254.608 186.164 254.172C185.737 253.726 185.529 253.151 185.529 252.427V232.572C185.529 230.837 186.164 229.974 187.435 229.974H208.013V229.964Z" fill="#F27F20"/>
<path fill-rule="evenodd" clip-rule="evenodd" d="M159.957 182.193C155.837 177.961 150.378 175.819 143.717 175.819C137.056 175.819 131.537 178 127.308 182.293C123.08 186.585 120.945 192.919 120.945 201.137C120.945 209.355 123.06 215.71 127.239 220.052C131.428 224.394 136.897 226.594 143.518 226.594C150.139 226.594 155.609 224.473 159.818 220.3C164.027 216.126 166.161 209.722 166.161 201.276C166.161 192.83 164.076 186.416 159.967 182.193H159.957ZM147.052 197.093C147.023 198.084 146.348 198.867 145.563 198.838C144.769 198.808 144.164 197.985 144.193 196.994C144.223 196.002 144.898 195.219 145.682 195.249C146.477 195.279 147.082 196.102 147.052 197.093ZM143.012 197.093C142.982 198.084 142.307 198.867 141.523 198.838C140.729 198.808 140.124 197.985 140.153 196.994C140.183 196.002 140.858 195.219 141.642 195.249C142.436 195.279 143.042 196.102 143.012 197.093ZM148.293 208.87C147.052 210.565 145.484 211.388 143.509 211.388C141.533 211.388 139.985 210.575 138.764 208.909C137.493 207.165 136.848 204.577 136.848 201.207C136.848 197.836 137.523 195.219 138.863 193.405C139.042 193.157 139.23 192.939 139.419 192.731C139.826 193.286 139.865 194.109 139.25 195.199C138.635 196.29 138.098 198.104 138.287 199.244C138.555 200.82 140.451 203.17 140.908 204.468C141.364 205.777 142.476 205.866 143.538 205.866C144.6 205.866 145.722 205.777 146.169 204.468C146.625 203.16 148.521 200.81 148.789 199.244C148.978 198.104 148.442 196.29 147.827 195.199C147.201 194.089 147.251 193.266 147.678 192.711C147.866 192.91 148.045 193.118 148.214 193.356C149.544 195.12 150.229 197.727 150.229 201.118C150.229 204.508 149.574 207.125 148.273 208.89L148.293 208.87Z" fill="#223F82"/>
<path d="M18.672 243.397V263.451H23.1191C23.8338 263.451 24.35 264.363 24.6478 266.177C24.8165 267.07 24.9059 267.972 24.9059 268.903C24.9059 269.835 24.8165 270.747 24.6478 271.63C24.35 273.444 23.8437 274.356 23.1191 274.356H1.7173C0.992661 274.356 0.506257 273.444 0.258092 271.63C0.0893395 270.737 0 269.835 0 268.903C0 267.972 0.0893395 267.06 0.258092 266.177C0.516184 264.363 1.00259 263.451 1.7173 263.451H6.10486V243.397C6.10486 241.999 7.2365 240.869 8.63615 240.869H16.1506C17.5502 240.869 18.6819 241.999 18.6819 243.397H18.672Z" fill="#223F82"/>
<path d="M4.68501 214.133C4.24824 216.671 6.96813 220.547 9.15199 222.649C11.3358 224.75 14.0061 226.227 16.6168 227.863C18.1058 228.795 19.9621 229.836 21.0242 231.095C24.8063 236.21 20.0117 240.641 20.0117 240.641C19.1679 238.411 16.6962 236.785 14.2146 235.575C11.7329 234.356 9.0428 233.335 7.05747 231.6C4.69494 229.528 3.79162 226.654 3.58316 223.937C3.3747 221.221 3.75191 216.701 4.68501 214.143V214.133Z" fill="#F27F20"/>
<path d="M4.00054 229.003C4.64577 230.926 6.59138 232.463 8.66604 233.622C10.7407 234.782 13.0238 235.674 14.9893 236.953C16.3592 237.845 17.5801 239.005 18.2154 240.284C18.1757 240.254 16.9051 239.392 13.6591 239.739C13.6591 239.739 10.0558 240.066 7.51456 238.936C7.38551 238.876 7.26639 238.817 7.14727 238.748C6.40278 238.391 5.71784 237.954 5.15202 237.409C3.96083 236.249 3.44465 234.733 3.37516 233.285C3.30567 231.828 3.65311 230.411 3.99061 229.013L4.00054 229.003Z" fill="#F27F20"/>
<path d="M43.4986 203.764H44.1438C44.789 203.764 46.7346 204.25 46.7346 204.25C46.7346 204.25 45.1166 202.882 42.2081 201.831C40.868 201.346 39.2798 201.088 37.9496 200.949C41.1062 198.441 43.4191 194.843 42.7938 190.758C41.8706 184.682 37.1852 179.993 31.9241 178.426C23.3277 175.859 16.1805 177.594 11.3066 181.034C9.46022 182.332 7.86204 184.85 6.95871 186.644C6.17451 188.201 5.61862 189.638 5.24141 191.026H5.14214V191.452C3.95095 196.211 4.76493 200.404 5.14214 206.6V213.073C5.14214 214.153 7.24659 219.021 10.2742 221.786C14.4334 225.583 19.8335 227.724 19.8335 227.724C19.8335 227.08 19.903 219.07 20.0817 216.661L20.1909 205.113C23.417 205.202 28.827 206.183 35.1602 202.783C35.597 202.545 36.0238 202.297 36.4507 202.02C37.4533 202.238 38.6544 202.575 39.925 203.07C43.2107 204.359 45.6129 206.213 45.6129 206.213L45.2456 205.707C44.8784 205.202 43.4986 203.764 43.4986 203.764ZM28.5292 192.721C28.5292 194.426 27.1494 195.804 25.4421 195.804C23.7347 195.804 22.3549 194.426 22.3549 192.721V189.162C22.3549 187.457 23.7347 186.079 25.4421 186.079C27.1494 186.079 28.5292 187.457 28.5292 189.162V192.721Z" fill="#223F82"/>
</g>
<defs>
<clipPath id="clip0_1826_1315">
<rect width="211" height="275" fill="white"/>
</clipPath>
</defs>
</svg>
