<svg width="256" height="80" viewBox="0 0 256 80" fill="none" xmlns="http://www.w3.org/2000/svg">
<path d="M100.783 78.3652C91.6765 78.3652 84.2212 75.029 78.451 68.3397C72.6807 61.6673 69.7871 51.8971 69.7871 39.046C69.7871 26.195 72.6978 16.4758 78.502 9.90561C84.3063 3.3354 91.8126 0.050293 100.987 0.050293C110.162 0.050293 117.6 3.31838 123.268 9.85454C128.936 16.3907 131.762 26.229 131.762 39.3694C131.762 52.5099 128.868 62.2971 123.098 68.7141C117.328 75.1482 109.889 78.3482 100.766 78.3482L100.783 78.3652ZM100.783 20.9694C97.9914 20.9694 95.6254 22.5524 93.702 25.7014C91.7786 28.8673 90.8084 33.3439 90.8084 39.1482C90.8084 44.9524 91.7276 49.412 93.5829 52.4928C95.4382 55.5737 97.8382 57.1226 100.766 57.1226C103.694 57.1226 106.093 55.5567 107.949 52.4418C109.804 49.3269 110.723 44.8503 110.723 39.046C110.723 33.2418 109.753 28.7652 107.83 25.6503C105.906 22.5354 103.54 20.9694 100.749 20.9694H100.783Z" fill="#224083"/>
<path d="M30.9958 78.3652C21.8894 78.3652 14.4341 75.029 8.66385 68.3397C2.89364 61.6673 0 51.8971 0 39.046C0 26.195 2.91066 16.4758 8.71491 9.90561C14.5192 3.3354 22.0255 0.050293 31.2 0.050293C40.3745 0.050293 47.8128 3.31838 53.4809 9.85454C59.1489 16.3907 61.9745 26.229 61.9745 39.3694C61.9745 52.5099 59.0809 62.2971 53.3107 68.7141C47.5404 75.1482 40.1021 78.3482 30.9787 78.3482L30.9958 78.3652ZM30.9958 20.9694C28.2043 20.9694 25.8383 22.5524 23.9149 25.7014C21.9915 28.8673 21.0213 33.3439 21.0213 39.1482C21.0213 44.9524 21.9404 49.412 23.7958 52.4928C25.6511 55.5737 28.0511 57.1226 30.9787 57.1226C33.9064 57.1226 36.3064 55.5567 38.1617 52.4418C40.017 49.3269 40.9362 44.8503 40.9362 39.046C40.9362 33.2418 39.966 28.7652 38.0426 25.6503C36.1192 22.5354 33.7532 20.9694 30.9617 20.9694H30.9958Z" fill="#F27F20"/>
<path d="M235.638 0.050293C242.305 0.050293 247.234 1.51614 250.425 4.44785C253.688 7.37955 255.319 11.2051 255.319 15.9244C255.319 19.9287 254.219 23.0034 252.021 25.1485C249.822 27.2222 246.666 28.259 242.553 28.259C241.276 28.259 240.461 28.1517 240.106 27.9372C239.751 27.6512 239.574 27.1149 239.574 26.3283C239.574 25.6133 239.503 24.6837 239.361 23.5397C239.29 22.3956 239.042 21.2873 238.617 20.2147C238.191 19.1421 237.517 18.2483 236.595 17.5332C235.673 16.7467 234.397 16.3534 232.766 16.3534C230.496 16.3534 228.475 17.0685 226.702 18.4986C224.929 19.8571 224.042 21.6448 224.042 23.8614C224.042 25.7921 224.751 27.3652 226.17 28.5807C227.659 29.7963 229.503 30.9404 231.702 32.013C233.9 33.0141 236.276 34.0509 238.829 35.1235C241.453 36.196 243.865 37.6261 246.063 39.4137C248.262 41.1299 250.07 43.3108 251.489 45.9564C252.978 48.5306 253.723 51.8198 253.723 55.8241C253.723 58.9703 253.191 61.9378 252.127 64.7265C251.134 67.4437 249.609 69.8391 247.553 71.9127C245.567 73.9149 243.014 75.488 239.893 76.632C236.844 77.7761 233.262 78.3482 229.148 78.3482C225.602 78.3482 222.305 77.9549 219.255 77.1683C216.276 76.3818 213.652 75.4165 211.383 74.2724C209.184 73.0568 207.446 71.7697 206.17 70.4111C204.893 68.981 204.255 67.6939 204.255 66.5499C204.255 61.8305 204.503 58.4341 205 56.3604C205.567 54.2868 206.56 53.2499 207.978 53.2499C208.971 53.2499 210 53.679 211.063 54.537C212.198 55.3951 213.475 56.3604 214.893 57.433C216.312 58.5056 217.943 59.4709 219.787 60.3289C221.702 61.187 223.9 61.616 226.383 61.616C227.375 61.616 228.333 61.5445 229.255 61.4015C230.248 61.187 231.099 60.8652 231.808 60.4362C232.588 60.0072 233.191 59.4351 233.617 58.7201C234.113 58.005 234.361 57.147 234.361 56.1459C234.361 54.3583 233.688 52.9282 232.34 51.8556C230.992 50.783 229.29 49.8177 227.234 48.9596C225.177 48.0301 222.943 47.1005 220.531 46.171C218.191 45.1699 215.992 43.847 213.936 42.2024C211.879 40.4863 210.177 38.3054 208.829 35.6597C207.482 33.0141 206.808 29.6176 206.808 25.4703C206.808 20.8225 207.659 16.8897 209.361 13.672C211.134 10.4543 213.368 7.84433 216.063 5.84219C218.829 3.76855 221.914 2.3027 225.319 1.44464C228.794 0.515075 232.234 0.050293 235.638 0.050293Z" fill="#224083"/>
<path d="M199.297 42.0643H200.286C201.274 42.0643 204.255 42.8333 204.255 42.8333C204.255 42.8333 201.776 40.6674 197.32 39.0037C195.267 38.2346 192.833 37.8265 190.795 37.6068C195.632 33.6358 199.175 27.9384 198.217 21.4719C196.803 11.8506 189.624 4.42673 181.563 1.94686C168.392 -2.11824 157.442 0.628448 149.974 6.07475C147.146 8.13084 144.697 12.1175 143.313 14.9583C142.111 17.4225 141.26 19.6983 140.682 21.8957H140.53V22.5706C138.705 30.1044 139.952 36.7435 140.53 46.5531V56.8022C140.53 58.513 143.754 66.2195 148.393 70.5985C154.765 76.6098 163.039 80 163.039 80C163.039 78.9798 163.145 66.2979 163.419 62.484L163.586 44.1988C168.529 44.3401 176.818 45.8939 186.521 40.5104C187.191 40.1337 187.845 39.7413 188.499 39.3019C190.035 39.6472 191.875 40.1808 193.822 40.9656C198.856 43.006 202.536 45.941 202.536 45.941L201.974 45.1406C201.411 44.3401 199.297 42.0643 199.297 42.0643ZM176.362 24.5796C176.362 27.2792 174.248 29.4609 171.632 29.4609C169.016 29.4609 166.902 27.2792 166.902 24.5796V18.945C166.902 16.2454 169.016 14.0637 171.632 14.0637C174.248 14.0637 176.362 16.2454 176.362 18.945V24.5796Z" fill="#F27F20"/>
</svg>
