<svg width="375" height="85" viewBox="0 0 375 85" fill="none" xmlns="http://www.w3.org/2000/svg">
<path d="M526 -128.746L462.973 -62.3285L191.371 -85.1187L38.0271 0.181633L-7.45642 53.5757L-25 -128.746L5.53888 -188H462.973L526 -128.746Z" fill="#F27F20"/>
<path d="M-15.7592 84.9792C6.70782 41.1767 66.358 22.7556 125.197 21.9996C184.035 21.2437 244.709 34.6972 304.419 39.383C338.429 42.063 373.29 41.1713 404.258 33.9875C522.396 -1.05717 492.647 -117.044 492.647 -117.044C453.73 -92.6275 402.373 -102.285 349.639 -111.914C296.89 -121.521 243.037 -136.612 192.055 -132.706C131.213 -127.992 81.7286 -96.1559 49.2374 -55.2141C16.7406 -14.3087 -0.750488 35.3169 -15.7748 85L-15.7592 84.9792Z" fill="#F27F20"/>
</svg>
