<svg width="375" height="154" viewBox="0 0 375 154" fill="none" xmlns="http://www.w3.org/2000/svg">
<path d="M-28 164.5L20.5 113.5L229.5 131L347.5 65.5L382.5 24.5L396 164.5L372.5 210H20.5L-28 164.5Z" fill="url(#paint0_linear_329_2377)"/>
<path d="M-28 164.5L20.5 113.5L229.5 131L347.5 65.5L382.5 24.5L396 164.5L372.5 210H20.5L-28 164.5Z" fill="black" fill-opacity="0.2"/>
<path d="M-28 164.5L20.5 113.5L229.5 131L347.5 65.5L382.5 24.5L396 164.5L372.5 210H20.5L-28 164.5Z" fill="black" fill-opacity="0.2"/>
<path d="M-28 164.5L20.5 113.5L229.5 131L347.5 65.5L382.5 24.5L396 164.5L372.5 210H20.5L-28 164.5Z" fill="black" fill-opacity="0.2"/>
<path d="M-28 164.5L20.5 113.5L229.5 131L347.5 65.5L382.5 24.5L396 164.5L372.5 210H20.5L-28 164.5Z" fill="black" fill-opacity="0.2"/>
<path d="M388.889 0.386082C371.601 34.021 325.699 48.1661 280.422 48.7465C235.145 49.327 188.456 38.9964 142.509 35.3983C116.338 33.3404 89.5117 34.0251 65.682 39.5414C-25.227 66.4513 -2.33468 155.515 -2.33468 155.515C27.6122 136.766 67.1323 144.181 107.711 151.575C148.302 158.953 189.743 170.541 228.974 167.541C275.792 163.922 313.871 139.475 338.874 108.037C363.88 76.6268 377.34 38.5205 388.901 0.370117L388.889 0.386082Z" fill="url(#paint1_linear_329_2377)"/>
<path d="M388.889 0.386082C371.601 34.021 325.699 48.1661 280.422 48.7465C235.145 49.327 188.456 38.9964 142.509 35.3983C116.338 33.3404 89.5117 34.0251 65.682 39.5414C-25.227 66.4513 -2.33468 155.515 -2.33468 155.515C27.6122 136.766 67.1323 144.181 107.711 151.575C148.302 158.953 189.743 170.541 228.974 167.541C275.792 163.922 313.871 139.475 338.874 108.037C363.88 76.6268 377.34 38.5205 388.901 0.370117L388.889 0.386082Z" fill="black" fill-opacity="0.2"/>
<path d="M388.889 0.386082C371.601 34.021 325.699 48.1661 280.422 48.7465C235.145 49.327 188.456 38.9964 142.509 35.3983C116.338 33.3404 89.5117 34.0251 65.682 39.5414C-25.227 66.4513 -2.33468 155.515 -2.33468 155.515C27.6122 136.766 67.1323 144.181 107.711 151.575C148.302 158.953 189.743 170.541 228.974 167.541C275.792 163.922 313.871 139.475 338.874 108.037C363.88 76.6268 377.34 38.5205 388.901 0.370117L388.889 0.386082Z" fill="black" fill-opacity="0.2"/>
<path d="M388.889 0.386082C371.601 34.021 325.699 48.1661 280.422 48.7465C235.145 49.327 188.456 38.9964 142.509 35.3983C116.338 33.3404 89.5117 34.0251 65.682 39.5414C-25.227 66.4513 -2.33468 155.515 -2.33468 155.515C27.6122 136.766 67.1323 144.181 107.711 151.575C148.302 158.953 189.743 170.541 228.974 167.541C275.792 163.922 313.871 139.475 338.874 108.037C363.88 76.6268 377.34 38.5205 388.901 0.370117L388.889 0.386082Z" fill="black" fill-opacity="0.2"/>
<path d="M388.889 0.386082C371.601 34.021 325.699 48.1661 280.422 48.7465C235.145 49.327 188.456 38.9964 142.509 35.3983C116.338 33.3404 89.5117 34.0251 65.682 39.5414C-25.227 66.4513 -2.33468 155.515 -2.33468 155.515C27.6122 136.766 67.1323 144.181 107.711 151.575C148.302 158.953 189.743 170.541 228.974 167.541C275.792 163.922 313.871 139.475 338.874 108.037C363.88 76.6268 377.34 38.5205 388.901 0.370117L388.889 0.386082Z" fill="black" fill-opacity="0.2"/>
<defs>
<linearGradient id="paint0_linear_329_2377" x1="-28" y1="105.185" x2="396" y2="105.185" gradientUnits="userSpaceOnUse">
<stop stop-color="#224083"/>
<stop offset="1" stop-color="#2D66E8"/>
</linearGradient>
<linearGradient id="paint1_linear_329_2377" x1="-28" y1="105.185" x2="396" y2="105.185" gradientUnits="userSpaceOnUse">
<stop stop-color="#224083"/>
<stop offset="1" stop-color="#2D66E8"/>
</linearGradient>
</defs>
</svg>
