<svg width="102" height="102" viewBox="0 0 102 102" fill="none" xmlns="http://www.w3.org/2000/svg">
<path d="M13.199 51.5599C14.3707 47.187 18.8654 44.592 23.2382 45.7637L39.6015 50.1482C43.9743 51.3199 46.5694 55.8146 45.3977 60.1875L41.0131 76.5507C39.8414 80.9236 35.3467 83.5186 30.9739 82.3469L14.6106 77.9624C10.2378 76.7907 7.64276 72.2959 8.81446 67.9231L13.199 51.5599Z" fill="#162D61"/>
<path d="M6.50615 55.424C7.67784 51.0511 12.1726 48.4561 16.5454 49.6278L32.9087 54.0123C37.2815 55.184 39.8765 59.6787 38.7048 64.0516L34.3203 80.4148C33.1486 84.7877 28.6539 87.3827 24.2811 86.211L7.91779 81.8265C3.54496 80.6548 0.949928 76.1601 2.12162 71.7872L6.50615 55.424Z" fill="#F1F1F1"/>
<path d="M18.715 30.9737C17.5433 35.3465 20.1383 39.8413 24.5111 41.013L40.8744 45.3975C45.2472 46.5692 49.7419 43.9741 50.9136 39.6013L55.2982 23.2381C56.4699 18.8652 53.8748 14.3705 49.502 13.1988L33.1387 8.81428C28.7659 7.64258 24.2712 10.2376 23.0995 14.6104L18.715 30.9737Z" fill="#F27F20"/>
<path d="M14.8508 24.2809C13.6792 28.6537 16.2742 33.1484 20.647 34.3201L37.0103 38.7046C41.3831 39.8763 45.8778 37.2813 47.0495 32.9085L51.434 16.5452C52.6057 12.1724 50.0107 7.67766 45.6379 6.50596L29.2746 2.12144C24.9018 0.949744 20.4071 3.54478 19.2354 7.91761L14.8508 24.2809Z" fill="#F1F1F1"/>
<path d="M60.5766 24.6525C61.7483 20.2797 66.2431 17.6846 70.6159 18.8563L86.9792 23.2408C91.352 24.4125 93.947 28.9073 92.7753 33.2801L88.5322 49.1155C87.3605 53.4883 82.8658 56.0834 78.493 54.9117L62.1297 50.5272C57.7569 49.3555 55.1619 44.8607 56.3336 40.4879L60.5766 24.6525Z" fill="#162D61"/>
<path d="M67.2695 20.7884C68.4412 16.4155 72.9359 13.8205 77.3087 14.9922L93.672 19.3767C98.0448 20.5484 100.64 25.0432 99.4682 29.416L95.2251 45.2514C94.0534 49.6242 89.5586 52.2193 85.1858 51.0476L68.8226 46.663C64.4497 45.4913 61.8547 40.9966 63.0264 36.6238L67.2695 20.7884Z" fill="#F1F1F1"/>
<path d="M46.2916 77.9652C45.1199 82.338 47.715 86.8328 52.0878 88.0044L68.4511 92.389C72.8239 93.5607 77.3186 90.9656 78.4903 86.5928L82.7334 70.7574C83.9051 66.3846 81.3101 61.8898 76.9372 60.7181L60.574 56.3336C56.2012 55.1619 51.7064 57.7569 50.5347 62.1298L46.2916 77.9652Z" fill="#F27F20"/>
<path d="M50.1558 84.658C48.9841 89.0309 51.5791 93.5256 55.9519 94.6973L72.3152 99.0818C76.688 100.254 81.1827 97.6585 82.3544 93.2856L86.5975 77.4502C87.7692 73.0774 85.1742 68.5827 80.8014 67.411L64.4381 63.0264C60.0653 61.8548 55.5705 64.4498 54.3988 68.8226L50.1558 84.658Z" fill="#F1F1F1"/>
</svg>
