<svg width="35" height="35" viewBox="0 0 35 35" fill="none" xmlns="http://www.w3.org/2000/svg">
<g clip-path="url(#clip0_983_1167)">
<path d="M13.2328 31.4542C13.0877 31.7054 13.0484 32.004 13.1235 32.2842C13.1986 32.5644 13.3819 32.8033 13.6331 32.9483L17.422 35.1358C17.9244 35.4259 18.5215 35.5045 19.0819 35.3543C19.6423 35.2042 20.1201 34.8376 20.4102 34.3351L33.5352 11.602C33.8252 11.0995 33.9038 10.5024 33.7537 9.94203C33.6035 9.38164 33.2369 8.90385 32.7345 8.61377L28.9456 6.42627C28.6944 6.28123 28.3959 6.24193 28.1157 6.317C27.8355 6.39208 27.5966 6.57539 27.4515 6.82661C27.0164 7.58026 26.2997 8.13019 25.4591 8.35543C24.6185 8.58067 23.7229 8.46275 22.9693 8.02763C22.2156 7.59251 21.6657 6.87582 21.4404 6.03524C21.2152 5.19465 21.3331 4.29901 21.7682 3.54536C21.9133 3.29414 21.9526 2.9956 21.8775 2.7154C21.8024 2.43521 21.6191 2.19631 21.3679 2.05127L17.579 -0.13623C17.0766 -0.42631 16.4795 -0.504919 15.9191 -0.354762C15.3587 -0.204605 14.8809 0.162016 14.5909 0.66445L1.46585 23.3976C1.17577 23.9001 1.09716 24.4971 1.24732 25.0575C1.39748 25.6179 1.7641 26.0957 2.26653 26.3858L6.05539 28.5733C6.30661 28.7183 6.60515 28.7576 6.88535 28.6826C7.16555 28.6075 7.40444 28.4242 7.54948 28.173C7.9846 27.4193 8.70129 26.8694 9.54188 26.6441C10.3825 26.4189 11.2781 26.5368 12.0318 26.9719C12.7854 27.4071 13.3353 28.1237 13.5606 28.9643C13.7858 29.8049 13.6679 30.7006 13.2328 31.4542ZM19.4217 3.45351C19.0209 4.64966 19.046 5.94755 19.4928 7.1273C19.9395 8.30704 20.7803 9.29607 21.8728 9.92681C22.9652 10.5576 24.2422 10.7912 25.4872 10.5882C26.7323 10.3852 27.8688 9.758 28.7044 8.81289L31.6407 10.5082L27.8126 17.1387L12.6572 8.38871L16.4853 1.7582L19.4217 3.45351Z" fill="#224083"/>
</g>
<defs>
<clipPath id="clip0_983_1167">
<rect width="35" height="35" fill="white" transform="translate(35 1.5299e-06) rotate(90)"/>
</clipPath>
</defs>
</svg>
