<svg width="118" height="275" viewBox="0 0 118 275" fill="none" xmlns="http://www.w3.org/2000/svg">
<path d="M77.25 0.105058C75.0518 34.6431 49.8147 68.5935 20.7997 96.7952C-8.20927 125.019 -38.7845 152.966 -68.6098 179.58C-90.2042 198.84 -111.932 221.552 -116.772 245.514C-116.225 244.862 -87.6611 239.759 -35.3156 224.457C-35.3156 224.457 26.2982 209.175 63.1437 179.308C64.9159 177.751 66.7165 176.21 68.3972 174.58L68.3523 174.592C79.1127 165.454 88.3897 155.268 95.2368 143.737C109.787 119.291 111.596 92.0996 106.301 67.8462C101.005 43.5929 89.0862 21.7397 77.2725 0.0990422L77.25 0.105058Z" fill="#224083"/>
<path d="M117.462 127.724C117.681 130.936 117.568 134.444 117.058 138.182C107.67 300.652 -41.8918 285.247 -117.026 256.434C60.2538 245.117 111.578 178.369 117.058 138.182C117.255 134.775 117.39 131.289 117.462 127.724Z" fill="#162D61"/>
</svg>
