<svg width="121" height="275" viewBox="0 0 121 275" fill="none" xmlns="http://www.w3.org/2000/svg">
<path d="M41.2081 274.895C43.4063 240.357 68.6434 206.407 97.6584 178.205C126.667 149.981 157.243 122.034 187.068 95.4202C208.662 76.1602 230.39 53.4479 235.23 29.4863C234.683 30.1382 206.119 35.2414 153.774 50.5425C153.774 50.5425 92.16 65.8248 55.3144 95.6916C53.5422 97.2492 51.7416 98.7903 50.0609 100.42L50.1058 100.408C39.3455 109.546 30.0685 119.732 23.2213 131.263C8.67076 155.709 6.86192 182.9 12.1576 207.154C17.4532 231.407 29.3719 253.26 41.1856 274.901L41.2081 274.895Z" fill="#F27F20"/>
<path d="M0.996211 147.276C0.777189 144.064 0.890282 140.556 1.39993 136.818C10.7879 -25.6517 160.35 -10.2467 235.484 18.5656C58.2043 29.8832 6.87968 96.6313 1.39993 136.818C1.20306 140.225 1.0678 143.711 0.996211 147.276Z" fill="#CB5C00"/>
</svg>
